<svg width="68" height="60" viewBox="0 0 68 60" fill="none" xmlns="http://www.w3.org/2000/svg">
<mask id="mask0" mask-type="alpha" maskUnits="userSpaceOnUse" x="10" y="0" width="58" height="58">
<path d="M68 29C68 45.0163 55.0163 58 39 58C22.9837 58 10 45.0163 10 29C10 12.9837 22.9837 0 39 0C55.0163 0 68 12.9837 68 29Z" fill="#C4C4C4"/>
</mask>
<g mask="url(#mask0)">
</g>
<mask id="mask1" mask-type="alpha" maskUnits="userSpaceOnUse" x="0" y="2" width="58" height="58">
<circle cx="29" cy="31" r="29" fill="#C4C4C4"/>
</mask>
<g mask="url(#mask1)">
<path d="M101.373 56.2371C101.373 57.5781 100.299 58.6664 98.9746 58.6664H37.0252C35.7006 58.6664 34.627 57.5781 34.627 56.2371V51.6481C34.627 50.3063 35.7006 49.2188 37.0252 49.2188H98.9746C100.299 49.2188 101.373 50.3063 101.373 51.6481V56.2371Z" fill="#424242"/>
<path d="M19.2595 8.36328C19.2595 9.135 19.9326 10.3505 20.8648 10.5529L19.8655 12.4089C19.8655 12.4089 19.0045 10.9335 16.9037 11.57H16.002V8.36328H19.2595Z" fill="#808184"/>
<path d="M8.34393 8.03641C8.26239 9.66973 10.5375 11.2496 12.8038 11.8302C16.1398 12.6853 19.2998 11.0763 19.2998 7.73922C19.2998 4.50011 17.0719 2.82549 13.8199 3.78427C11.5791 4.44666 8.42387 6.42657 8.34393 8.03641Z" fill="#808184"/>
<path d="M13.9891 70.069C13.9891 71.6392 15.2466 72.9138 16.7974 72.9138H25.5709C27.121 72.9138 28.3792 71.64 28.3792 70.069V42.8127C28.3792 41.2425 27.1218 39.9688 25.5709 39.9688H16.7966C15.2466 39.9688 13.9883 41.2417 13.9883 42.8127V70.069H13.9891Z" fill="#424242"/>
<path d="M120.992 21.6496C120.393 17.6007 117.295 13.0457 115.596 9.60413C113.897 6.16257 107.635 -10.033 106.103 -12.8672C104.571 -15.7014 101.307 -18.5867 97.3096 -19.194C93.3126 -19.8014 75.6584 -19.8848 67.9977 -19.8848C60.3369 -19.8848 42.6828 -19.8014 38.6858 -19.194C34.6887 -18.5867 31.4247 -15.7014 29.8923 -12.8672C28.3606 -10.033 22.098 6.16257 20.3993 9.60413C18.7005 13.0457 15.6028 17.6007 15.0033 21.6496C14.4037 25.6985 14.6036 49.6882 15.6028 53.6358C16.6021 57.5835 20.2994 60.0129 23.1972 60.0129C23.9031 60.0129 26.9281 60.0129 31.0914 60.0129C32.89 60.0129 34.0268 58.5625 34.2482 58.0629L35.3083 55.6668C35.8191 54.5137 37.294 53.6059 38.6186 53.6059H97.3752C98.6998 53.6059 100.175 54.5137 100.686 55.6668L101.793 58.1706C102.102 58.7383 103.198 60.0129 104.89 60.0129C109.062 60.0129 112.092 60.0129 112.799 60.0129C115.697 60.0129 119.394 57.5835 120.393 53.6358C121.393 49.6882 121.592 25.6985 120.992 21.6496Z" fill="#808184"/>
<path d="M14.8652 44.293C15.0195 48.6674 15.2665 52.3009 15.6039 53.6354C16.6031 57.5831 20.3004 60.0124 23.1983 60.0124C23.9042 60.0124 26.9291 60.0124 31.0924 60.0124C32.8911 60.0124 34.0279 58.5621 34.2493 58.0625L35.3093 55.6663C35.8201 54.5132 37.2951 53.6054 38.6197 53.6054H97.3763C98.7009 53.6054 100.177 54.5132 100.687 55.6663L101.794 58.1701C102.103 58.7378 103.199 60.0124 104.892 60.0124C109.063 60.0124 112.093 60.0124 112.8 60.0124C115.698 60.0124 119.395 57.5831 120.394 53.6354C120.732 52.3009 120.978 48.6674 121.133 44.293H14.8652Z" fill="#808184"/>
<path d="M119.518 17.0861C118.309 14.4195 116.673 11.7877 115.596 9.60373C115.115 8.62957 114.269 6.63346 113.268 4.20898H22.7283C21.7266 6.63346 20.8809 8.62957 20.3996 9.60373C19.322 11.7877 17.6864 14.4195 16.4785 17.0861H119.518Z" fill="#808184"/>
<path d="M106.487 2.38554C106.171 0.968431 101.974 -12.4609 93.3806 -12.4609C85.883 -12.4609 72.2267 -12.4609 68.8651 -12.4609C68.3735 -12.4609 68.0993 -12.4609 68.0993 -12.4609C64.8321 -12.4609 50.0918 -12.4609 42.6181 -12.4609C34.0245 -12.4609 29.8276 0.968431 29.511 2.38554C29.1937 3.80266 30.3272 5.48942 32.9253 5.48942C35.2828 5.48942 63.2597 5.48942 68.0993 5.48942C68.0993 5.48942 68.3719 5.48942 68.8651 5.48942C73.7695 5.48942 100.713 5.48942 103.073 5.48942C105.671 5.48942 106.803 3.80266 106.487 2.38554Z" fill="#F1F2F2"/>
<path d="M23.056 14.8382C23.056 14.8382 42.4913 17.0982 43.1907 17.1825C43.8902 17.2675 44.3898 17.976 43.7903 19.1907C43.1907 20.4054 40.3928 23.7457 39.3935 24.4543C38.3943 25.1628 36.945 25.9224 34.0975 26.4285C31.25 26.9346 25.1545 28.1493 24.2551 28.4028C23.3558 28.6562 22.0568 27.4407 21.9065 26.5297C21.7562 25.6187 21.6562 16.8626 21.6562 16.2302C21.657 15.5969 22.0863 14.7248 23.056 14.8382Z" fill="#1F1F1F"/>
<path d="M42.9222 40.7406C42.9222 41.6403 42.2027 42.3699 41.3146 42.3699H25.9443C25.0562 42.3699 24.3359 41.6411 24.3359 40.7406C24.3359 39.8409 25.0554 39.1113 25.9443 39.1113H41.3154C42.2027 39.1113 42.9222 39.8409 42.9222 40.7406Z" fill="#434244"/>
<path d="M80.1906 20.5039H55.8086V28.7313H80.1906V20.5039Z" fill="white"/>
</g>
</svg>
