<svg width="56" height="47" viewBox="0 0 56 47" fill="none" xmlns="http://www.w3.org/2000/svg">
<g clip-path="url(#clip0)">
<path d="M46.4618 9.78183L22.5374 9.37125C22.5374 9.37125 18.2171 6.81775 13.498 9.63461L9.24221 9.83091L8.84473 12.7606L47.2005 12.5823L46.4618 9.78183Z" fill="#182527"/>
<path d="M13.3115 2.8803L18.7173 1.9528H24.6713L31.3353 1.56348L37.2825 2.03786L41.3656 2.41082L43.6107 2.8803L45.1088 4.51611L46.4863 8.73322L47.0551 10.9841L46.1834 13.2808L39.8209 13.5425L29.0039 12.7753L21.4023 13.2808L14.2901 13.0583L10.0987 13.2808H8.27441L8.63763 10.4672L9.81638 7.55216L10.5017 5.27839L12.0574 2.8803H13.3115Z" fill="#F1F2F2"/>
<path d="M29.9101 5.38658C30.5395 5.38658 31.0586 4.88656 31.0586 4.26911V4.26747C31.0586 3.65002 30.5395 3.15 29.9101 3.15H26.0983C25.4689 3.15 24.9498 3.65002 24.9498 4.26747V4.26911C24.9498 4.88656 25.4689 5.38658 26.0983 5.38658H29.9101Z" fill="white" stroke="#939393" stroke-width="0.2"/>
<path d="M28.2199 2.41113H27.7812V3.15869H28.2199V2.41113Z" fill="#434244"/>
<path d="M28.3846 2.41105C28.3846 2.6188 28.2119 2.78565 27.9994 2.78565C27.787 2.78565 27.6143 2.6188 27.6143 2.41105C27.6143 2.20494 27.787 2.03809 27.9994 2.03809C28.2119 2.03809 28.3846 2.20494 28.3846 2.41105Z" fill="#434244"/>
<path d="M0.40332 45.4362C0.40332 46.2999 1.12427 46.9984 2.01244 46.9984H6.10105C6.99059 46.9984 7.71017 46.2983 7.71017 45.4362V37.4567C7.71017 36.5947 6.98922 35.8945 6.10105 35.8945H2.01244C1.1229 35.8945 0.40332 36.593 0.40332 37.4567V45.4362Z" fill="#434244"/>
<path d="M6.0396 37.3486H5.82715V46.9983H6.0396V37.3486Z" fill="#434244"/>
<path d="M5.32964 37.3486H5.11719V46.9983H5.32964V37.3486Z" fill="#434244"/>
<path d="M2.28667 37.3486H2.07422V46.9983H2.28667V37.3486Z" fill="#434244"/>
<path d="M2.9976 37.3486H2.78516V46.9983H2.9976V37.3486Z" fill="#434244"/>
<path d="M55.5973 45.4362C55.5973 46.2999 54.8763 46.9984 53.9882 46.9984H49.8982C49.0086 46.9984 48.2891 46.2983 48.2891 45.4362V37.4567C48.2891 36.5947 49.0086 35.8945 49.8982 35.8945H53.9882C54.8763 35.8945 55.5973 36.593 55.5973 37.4567V45.4362Z" fill="#434244"/>
<path d="M50.1734 37.3486H49.9609V46.9983H50.1734V37.3486Z" fill="#434244"/>
<path d="M50.882 37.3486H50.6709V46.9983H50.882V37.3486Z" fill="#434244"/>
<path d="M53.9263 37.3486H53.7139V46.9983H53.9263V37.3486Z" fill="#434244"/>
<path d="M53.2154 37.3486H53.0029V46.9983H53.2154V37.3486Z" fill="#434244"/>
<path d="M47.9072 12.7656C47.9072 12.7656 50.3785 12.8196 51.1885 12.6707C51.8697 12.5464 52.7387 11.915 52.821 10.9711C52.8813 10.2546 52.5907 9.69027 51.5942 9.24043C50.9541 8.95253 49.4793 8.8004 48.6021 8.73333C48.1896 8.70225 47.9086 9.06049 47.9086 9.47598C47.9072 10.2955 47.9072 12.7656 47.9072 12.7656Z" fill="#939393"/>
<path d="M52.595 10.951C52.5224 11.8082 51.7301 12.3807 51.1134 12.4936C50.6898 12.5704 49.7605 12.5884 49.0506 12.5884C48.5325 12.5884 48.1309 12.5803 48.1309 12.5803C48.1309 12.5803 48.1309 10.3359 48.1309 9.59327C48.1309 9.21376 48.3858 8.88987 48.76 8.91768C49.5536 8.97821 50.8845 9.11398 51.4711 9.37571C51.4738 9.37571 51.4766 9.37734 51.4807 9.37898C52.388 9.78793 52.6512 10.3016 52.595 10.951Z" fill="white"/>
<path opacity="0.43" d="M52.5952 10.9519C52.5226 11.8091 51.7304 12.3816 51.1136 12.4945C50.6901 12.5714 49.7608 12.5894 49.0508 12.5894L51.4713 9.375C51.4741 9.375 51.4768 9.37664 51.4809 9.37827C52.3883 9.78886 52.6514 10.3025 52.5952 10.9519Z" fill="#939393"/>
<path d="M8.09182 12.7656C8.09182 12.7656 5.62056 12.8196 4.81052 12.6707C4.12931 12.5464 3.26033 11.915 3.17946 10.9711C3.11916 10.2546 3.40836 9.69027 4.40618 9.24043C5.04627 8.95253 6.52107 8.8004 7.39828 8.73333C7.81084 8.70225 8.09182 9.06049 8.09182 9.47598C8.09182 10.2955 8.09182 12.7656 8.09182 12.7656Z" fill="#939393"/>
<path d="M3.40338 10.951C3.47602 11.8082 4.26688 12.3807 4.88503 12.4936C5.30856 12.5704 6.23785 12.5884 6.94784 12.5884C7.46594 12.5884 7.86616 12.5803 7.86616 12.5803C7.86616 12.5803 7.86616 10.3359 7.86616 9.59327C7.86616 9.21376 7.61123 8.88987 7.23567 8.91768C6.44208 8.97821 5.11256 9.11398 4.52593 9.37571C4.52319 9.37571 4.52045 9.37734 4.51633 9.37898C3.61172 9.78793 3.34855 10.3016 3.40338 10.951Z" fill="white"/>
<path opacity="0.43" d="M3.40338 10.9513C3.47602 11.8084 4.26688 12.381 4.88503 12.4938C5.30856 12.5707 6.23785 12.5887 6.94784 12.5887L4.5273 9.37598C4.52456 9.37598 4.52182 9.37761 4.5177 9.37925C3.61171 9.7882 3.34855 10.3018 3.40338 10.9513Z" fill="#939393"/>
<path d="M55.929 25.6622C55.8824 24.9474 55.818 24.2947 55.7385 23.7025C55.2834 20.2542 54.3939 18.8065 54.3939 18.8065C53.7799 17.5928 52.7738 16.3659 51.8199 15.3583C51.3634 14.8757 50.9193 14.4439 50.5356 14.0856C50.4972 14.048 50.4561 14.012 50.4191 13.976C49.975 13.5671 49.6268 13.271 49.4583 13.1287C49.3856 13.0681 49.3459 13.0371 49.3459 13.0371C46.7074 5.71846 43.9428 2.05752 43.9428 2.05752C43.3493 1.38848 42.6777 1.02696 42.0417 0.824125C41.4675 0.64255 40.9206 0.59184 40.4902 0.56076C33.3944 0.0700177 28.0023 0.117456 28.0023 0.117456C28.0023 0.117456 22.6075 0.0700177 15.5145 0.56076C15.0827 0.59184 14.5372 0.64255 13.9602 0.824125C13.3242 1.02696 12.6526 1.38848 12.0605 2.05752C12.0605 2.05752 9.29592 5.72009 6.65745 13.0371C6.65745 13.0371 6.61907 13.0698 6.54506 13.1287C6.37647 13.2693 6.02833 13.5671 5.58561 13.976C5.54723 14.0104 5.50749 14.048 5.46774 14.0856C5.08396 14.4422 4.63987 14.8757 4.18345 15.3583C3.23086 16.3659 2.22482 17.5911 1.6094 18.8065C1.6094 18.8065 0.71986 20.2542 0.26618 23.7025C0.186683 24.2947 0.120892 24.9474 0.0756615 25.6622C0.0153536 26.5832 -0.0106885 27.6072 0.00987104 28.7392C0.0112417 28.8275 0.0126123 28.9175 0.0153536 29.0091C0.0153536 29.0091 0.0153536 29.171 0.0167242 29.4655C0.0194655 29.8286 0.0235774 30.393 0.0318012 31.1111C0.0427663 31.8374 0.0578432 32.7207 0.0797734 33.7055C0.129116 35.7715 0.216837 38.289 0.367607 40.7656C0.367607 40.7656 0.367607 41.7635 2.67027 41.8747C2.67027 41.8747 23.5724 41.9859 28.001 41.8747C32.4281 41.9859 53.3317 41.8747 53.3317 41.8747C55.6343 41.7635 55.6343 40.7656 55.6343 40.7656C55.7865 38.289 55.8728 35.7715 55.9235 33.7055C55.9468 32.7191 55.9619 31.8374 55.9715 31.1094C55.9811 30.393 55.9852 29.8286 55.988 29.4655C55.9893 29.171 55.9893 29.0091 55.9893 29.0091C55.9921 28.9175 55.9934 28.8275 55.9948 28.7392C56.014 27.6072 55.988 26.5832 55.929 25.6622ZM46.0742 11.1935C46.0742 11.2246 46.0714 11.2589 46.0687 11.2966L46.0673 11.308C46.0262 11.6957 45.7754 12.3811 44.4897 12.3026C44.4897 12.3026 33.1066 11.8413 28.001 11.8413C22.894 11.8413 11.5109 12.3026 11.5109 12.3026C10.2252 12.3811 9.97301 11.6957 9.93189 11.308C9.92778 11.2655 9.92504 11.2262 9.92504 11.1935V11.1739C9.92367 11.0986 9.93189 11.0512 9.93189 11.0512C10.1156 8.5484 11.0627 5.38639 11.0627 5.38639C11.4245 4.24132 12.4306 4.03521 12.4306 4.03521C12.7773 3.94688 13.157 3.86345 13.56 3.78657C18.7245 2.80181 27.9996 2.71675 27.9996 2.71675C27.9996 2.71675 37.2719 2.80181 42.4365 3.78657C42.8422 3.86345 43.2205 3.94524 43.5673 4.03521C43.5673 4.03521 44.5733 4.24132 44.9352 5.38639C44.9352 5.38639 45.8823 8.5484 46.0659 11.0512C46.0659 11.0512 46.0728 11.0986 46.0728 11.1739V11.1935H46.0742Z" fill="#808184"/>
<path d="M55.9932 28.7407C55.9918 28.8291 55.9905 28.9191 55.9877 29.0107C55.9877 29.0107 55.9877 29.1726 55.9864 29.467C55.9836 29.8302 55.9795 30.3946 55.9699 31.111C48.415 31.2501 33.8438 31.502 27.898 31.502C21.996 31.502 7.54543 31.2501 0.0288715 31.1127C0.0192771 30.3962 0.0151652 29.8302 0.0137945 29.467C0.0124239 29.1726 0.0124239 29.0107 0.0124239 29.0107C0.00968262 28.9191 0.00831198 28.8291 0.00694135 28.7407C-0.0136182 27.6071 0.0124239 26.5831 0.0727318 25.6638C0.117963 24.9489 0.183753 24.2963 0.26325 23.7041H12.9923C13.8366 24.8263 14.818 26.0662 15.9584 27.4288C15.9693 27.4452 16.7849 28.5821 19.1136 28.6082C19.877 28.6164 20.8228 28.6393 21.8261 28.6639C23.5284 28.7064 25.4007 28.7506 27.1414 28.7489V28.7277C27.4224 28.7342 27.7102 28.7407 28.0035 28.744C28.2955 28.7407 28.5819 28.7342 28.8615 28.7277V28.7489C30.6022 28.7522 32.4745 28.7064 34.1768 28.6639C35.1788 28.6393 36.1259 28.6164 36.8893 28.6082C39.2221 28.5821 40.0322 27.4436 40.039 27.4337C41.1808 26.0678 42.1635 24.8263 43.0078 23.7041H55.7369C55.8164 24.2963 55.8808 24.9489 55.9274 25.6638C55.9877 26.5831 56.0138 27.6071 55.9932 28.7407Z" fill="#939393"/>
<path d="M15.1345 26.3513C10.0481 26.0715 7.11629 25.7984 4.50797 25.1538C4.35857 25.1162 4.22288 25.0688 4.09815 25.0115C3.36212 24.6778 3.01809 24.0399 2.87417 23.6816C2.81249 23.5229 2.78919 23.4183 2.78919 23.4183C1.77218 20.2055 2.93037 18.2884 2.93037 18.2884C3.41283 17.3919 3.91997 17.1335 4.37639 17.1253C4.44629 17.1237 4.51482 17.1286 4.58198 17.1368C4.85748 17.1744 5.10694 17.284 5.3139 17.3707C8.07984 18.5354 9.6314 18.7448 9.81918 18.766C9.83151 18.7677 9.83837 18.7677 9.83837 18.7677L10.8938 20.2791L15.1345 26.3513Z" fill="white"/>
<path d="M3.69773 22.64L2.87124 23.6837C2.80956 23.525 2.78626 23.4203 2.78626 23.4203C1.76925 20.2076 2.92744 18.2904 2.92744 18.2904C3.48392 17.2549 4.07329 17.0734 4.57905 17.1388L4.68048 18.171C3.13714 19.5663 3.69773 22.64 3.69773 22.64Z" fill="white"/>
<path d="M9.81623 18.766C9.39133 19.1226 8.17284 19.4334 4.67909 18.169L4.37207 17.1253C4.44197 17.1237 4.5105 17.1286 4.57767 17.1368C4.85316 17.1744 5.10262 17.284 5.30958 17.3707C8.0769 18.5354 9.62982 18.7431 9.81623 18.766Z" fill="white"/>
<path d="M4.55152 19.1826L4.46928 20.0856C4.44461 20.3833 4.42405 20.6777 4.41583 20.9656C4.4076 21.2536 4.41172 21.5382 4.44598 21.7934C4.46517 21.9193 4.48847 22.0371 4.52411 22.1238C4.55975 22.2121 4.60223 22.2563 4.62279 22.2645H4.62417L4.65295 22.2939L4.62691 22.2661C4.62554 22.2645 4.62417 22.2628 4.62554 22.2628C4.62554 22.2628 4.62828 22.2645 4.63239 22.2661L4.66117 22.2808C4.68447 22.2923 4.71189 22.3037 4.7393 22.3152C4.79687 22.3381 4.85991 22.3626 4.92433 22.3855C5.05454 22.4313 5.19161 22.4706 5.33004 22.5099C5.60691 22.5884 5.89474 22.6554 6.18121 22.7225C6.75824 22.8534 7.3435 22.9728 7.92876 23.1037C8.5154 23.2312 9.1034 23.3654 9.69277 23.5159C10.2821 23.668 10.8715 23.83 11.4595 24.0491C10.8468 24.1473 10.2369 24.1767 9.62835 24.1784C9.01979 24.1784 8.41123 24.1457 7.80541 24.0786C7.19822 24.0132 6.59377 23.9101 5.99069 23.7629C5.68915 23.6909 5.38761 23.6026 5.0847 23.4946C4.93393 23.4406 4.78316 23.3785 4.62965 23.3081C4.55289 23.2721 4.47477 23.2345 4.39527 23.1871C4.35552 23.1642 4.3144 23.1396 4.27054 23.1102C4.24861 23.0955 4.22668 23.0791 4.20064 23.0611L4.15952 23.0284L4.13485 23.0071L4.1184 22.9924L4.10744 22.9826L4.08551 22.9597L4.11566 22.9891C4.02383 22.9008 3.95255 22.7961 3.90184 22.6914C3.85113 22.5867 3.8196 22.4837 3.7963 22.3839C3.75244 22.186 3.74285 22.0044 3.74696 21.831C3.75655 21.4858 3.81412 21.1718 3.88813 20.8691C3.96352 20.5665 4.05809 20.277 4.16774 19.994C4.28151 19.7159 4.40623 19.4427 4.55152 19.1826Z" fill="white"/>
<path d="M10.0505 21.5107C9.92572 22.291 9.26782 22.8095 8.58113 22.6656L5.71788 22.0701C5.03256 21.9278 4.57751 21.1786 4.70361 20.3984L4.72965 20.2331C4.85575 19.4529 5.51365 18.9359 6.19897 19.0783L9.06223 19.6753C9.74754 19.8176 10.2026 20.5668 10.0765 21.3471L10.0505 21.5107Z" fill="white"/>
<path d="M11.954 25.2565C11.9321 25.4479 11.7278 25.5738 11.4989 25.5395L4.43607 24.4811C4.20717 24.4468 4.03858 24.2635 4.06051 24.0738C4.08244 23.8824 4.28667 23.7564 4.51556 23.7908L11.5784 24.8492C11.8087 24.8835 11.9759 25.0651 11.954 25.2565Z" fill="white"/>
<path opacity="0.23" d="M10.8908 20.2791C8.07005 21.3964 5.6317 23.4771 4.09522 25.0115C3.35919 24.6778 3.01516 24.0399 2.87124 23.6816C2.80956 23.5229 2.78626 23.4183 2.78626 23.4183C1.76925 20.2055 2.92744 18.2884 2.92744 18.2884C3.4099 17.3919 3.91703 17.1335 4.37346 17.1253C4.44336 17.1237 4.51189 17.1286 4.57905 17.1368C4.85455 17.1744 5.104 17.284 5.31097 17.3707C8.07691 18.5354 9.62846 18.7448 9.81624 18.766C9.82858 18.7677 9.83543 18.7677 9.83543 18.7677L10.8908 20.2791Z" fill="#939393"/>
<path d="M40.8662 26.3513C45.9526 26.0715 48.8844 25.7984 51.4927 25.1538C51.6421 25.1162 51.7778 25.0688 51.9026 25.0115C52.6386 24.6778 52.9826 24.0399 53.1265 23.6816C53.1882 23.5229 53.2115 23.4183 53.2115 23.4183C54.2285 20.2055 53.0703 18.2884 53.0703 18.2884C52.5879 17.3919 52.0807 17.1335 51.6243 17.1253C51.5544 17.1237 51.4859 17.1286 51.4187 17.1368C51.1446 17.1744 50.8938 17.284 50.6868 17.3707C47.9209 18.5354 46.3693 18.7448 46.1815 18.766C46.1692 18.7677 46.1623 18.7677 46.1623 18.7677L45.107 20.2791L40.8662 26.3513Z" fill="white"/>
<path d="M52.3011 22.64L53.1276 23.6837C53.1893 23.525 53.2126 23.4203 53.2126 23.4203C54.2296 20.2076 53.0714 18.2904 53.0714 18.2904C52.5149 17.2549 51.9255 17.0734 51.4198 17.1388L51.3184 18.171C52.8617 19.5663 52.3011 22.64 52.3011 22.64Z" fill="white"/>
<path d="M46.1826 18.766C46.6075 19.1226 47.826 19.4334 51.3198 18.169L51.6268 17.1253C51.5569 17.1237 51.4883 17.1286 51.4212 17.1368C51.1471 17.1744 50.8962 17.284 50.6893 17.3707C47.9206 18.5354 46.369 18.7431 46.1826 18.766Z" fill="white"/>
<path d="M51.447 19.1826L51.5293 20.0856C51.554 20.3833 51.5745 20.6777 51.5827 20.9656C51.591 21.2536 51.5869 21.5382 51.5526 21.7934C51.5334 21.9193 51.5101 22.0371 51.4745 22.1238C51.4388 22.2121 51.3963 22.2563 51.3758 22.2645H51.3744L51.3456 22.2939L51.3717 22.2661C51.373 22.2645 51.3744 22.2628 51.373 22.2628C51.373 22.2628 51.3689 22.2645 51.3662 22.2661L51.3374 22.2808C51.3141 22.2923 51.2867 22.3037 51.2593 22.3152C51.2017 22.3381 51.1387 22.3626 51.0742 22.3855C50.944 22.4313 50.807 22.4706 50.6685 22.5099C50.3917 22.5884 50.1038 22.6554 49.8174 22.7225C49.2403 22.8534 48.6551 22.9728 48.0698 23.1037C47.4832 23.2312 46.8952 23.3654 46.3058 23.5159C45.7164 23.668 45.1271 23.83 44.5391 24.0491C45.1517 24.1473 45.7617 24.1767 46.3702 24.1784C46.9788 24.1784 47.5873 24.1457 48.1932 24.0786C48.8004 24.0132 49.4048 23.9101 50.0079 23.7629C50.3108 23.6909 50.611 23.6026 50.9139 23.4946C51.0646 23.4406 51.2154 23.3785 51.3703 23.3081C51.447 23.2721 51.5252 23.2345 51.6047 23.1871C51.6444 23.1642 51.6855 23.1396 51.7294 23.1102C51.7513 23.0955 51.7746 23.0791 51.7993 23.0611L51.8404 23.0284L51.8651 23.0071L51.8802 22.9924L51.8911 22.9826L51.9131 22.9597L51.8829 22.9891C51.9747 22.9008 52.046 22.7961 52.0967 22.6914C52.1474 22.5867 52.179 22.4837 52.2023 22.3839C52.2461 22.186 52.2557 22.0044 52.2502 21.831C52.2406 21.4858 52.1831 21.1718 52.1091 20.8691C52.0337 20.5665 51.9391 20.277 51.8295 19.994C51.7157 19.7159 51.5923 19.4427 51.447 19.1826Z" fill="white"/>
<path d="M45.947 21.5107C46.0731 22.291 46.7297 22.8095 47.4164 22.6656L50.2796 22.0701C50.9663 21.9278 51.42 21.1786 51.2953 20.3984L51.2692 20.2331C51.1431 19.4529 50.4866 18.9359 49.7999 19.0783L46.9366 19.6753C46.2513 19.8176 45.7963 20.5668 45.9224 21.3471L45.947 21.5107Z" fill="white"/>
<path d="M44.0449 25.2565C44.0668 25.4479 44.2711 25.5738 44.5 25.5395L51.5628 24.4811C51.7917 24.4468 51.9603 24.2635 51.9384 24.0738C51.9165 23.8824 51.7122 23.7564 51.4833 23.7908L44.4205 24.8492C44.1902 24.8835 44.023 25.0651 44.0449 25.2565Z" fill="white"/>
<path opacity="0.23" d="M45.1084 20.2791C47.9292 21.3964 50.3675 23.4771 51.904 25.0115C52.64 24.6778 52.9841 24.0399 53.128 23.6816C53.1897 23.5229 53.213 23.4183 53.213 23.4183C54.23 20.2055 53.0718 18.2884 53.0718 18.2884C52.5893 17.3919 52.0822 17.1335 51.6258 17.1253C51.5559 17.1237 51.4873 17.1286 51.4202 17.1368C51.146 17.1744 50.8952 17.284 50.6882 17.3707C47.9223 18.5354 46.3708 18.7448 46.183 18.766C46.1706 18.7677 46.1638 18.7677 46.1638 18.7677L45.1084 20.2791Z" fill="#939393"/>
<path d="M46.9329 17.9697C46.8658 18.094 46.7945 18.2233 46.7191 18.3541C45.565 20.3907 43.5667 23.3891 40.1181 27.5114C40.088 27.5555 39.2711 28.7022 36.8889 28.7284C36.1268 28.7366 35.1797 28.7595 34.1778 28.784C32.5166 28.8249 30.6936 28.8691 28.9872 28.8691C28.6528 28.8691 28.3238 28.8675 27.999 28.8626C27.6755 28.8675 27.3466 28.8691 27.0121 28.8691C25.3071 28.8691 23.4827 28.8249 21.8215 28.784C20.8196 28.7595 19.8725 28.7366 19.1104 28.7284C16.7269 28.7022 15.9114 27.5555 15.8785 27.5081C12.4327 23.3875 10.4357 20.3907 9.2816 18.3541C9.20621 18.2233 9.13494 18.094 9.06641 17.9697H46.9329Z" fill="#808184"/>
<path d="M47.3612 12.1016C47.3544 12.1457 47.3475 12.1883 47.3393 12.2324C47.2242 12.8442 46.8815 13.5902 45.9618 14.0662C45.9618 14.0662 45.16 14.4261 44.0416 13.8862C44.0416 13.8862 43.3316 13.6163 37.9121 13.4822C35.434 13.42 32.1774 13.3137 27.9997 13.2712C23.8206 13.3137 20.564 13.42 18.0859 13.4822C12.6678 13.6163 11.9564 13.8862 11.9564 13.8862C10.8393 14.4244 10.0361 14.0662 10.0361 14.0662C9.11781 13.5902 8.77515 12.8442 8.65865 12.2324C8.65043 12.1883 8.6422 12.1441 8.63672 12.0999C8.91222 11.8644 9.45225 11.4898 9.89633 11.1904H9.92512C9.92923 11.5356 10.0841 12.3862 11.5096 12.3011C11.5096 12.3011 22.8927 11.8398 27.9997 11.8398C33.1053 11.8398 44.4884 12.3011 44.4884 12.3011C45.9138 12.3878 46.0687 11.5356 46.0728 11.1904H46.1016C46.5457 11.4881 47.0844 11.8627 47.3612 12.1016Z" fill="#939393"/>
<path d="M48.2665 14.8776C48.2651 14.8858 48.1829 15.3602 47.7278 16.3809C47.5359 16.8111 47.2796 17.3395 46.9342 17.9693C46.867 18.0936 46.7958 18.2228 46.7204 18.3537C45.9569 19.7016 44.8248 21.4666 43.1485 23.7028C42.2905 24.8478 41.2886 26.114 40.1208 27.5109C40.0906 27.5551 39.2737 28.7018 36.8916 28.728C36.1295 28.7362 35.1824 28.7591 34.1805 28.7836C32.5192 28.8245 30.6963 28.8687 28.9899 28.8687C28.6554 28.8687 28.3265 28.867 28.0016 28.8621C27.6782 28.867 27.3492 28.8687 27.0148 28.8687C25.3097 28.8687 23.4854 28.8245 21.8242 28.7836C20.8223 28.7591 19.8751 28.7362 19.1131 28.728C16.7295 28.7018 15.914 27.5551 15.8811 27.5077C14.7147 26.1123 13.7141 24.8462 12.8561 23.7028C11.1798 21.4683 10.0477 19.7 9.28425 18.3537C9.20887 18.2228 9.1376 18.0936 9.06906 17.9693C8.72366 17.3395 8.46599 16.8111 8.27547 16.3809C7.82042 15.3585 7.73407 14.8809 7.7327 14.8678C7.20089 13.3367 8.54685 12.1867 8.56056 12.1753C8.58386 12.154 8.6099 12.1295 8.64006 12.1049C8.91555 11.8694 9.45558 11.4948 9.89967 11.1954C9.90926 11.1889 9.91886 11.1823 9.92845 11.1758V11.1954C9.92845 11.2298 9.93119 11.269 9.9353 11.3099C9.4734 11.6224 8.91418 12.0117 8.66336 12.2358C8.64965 12.2472 8.63731 12.2587 8.62635 12.2685C8.61127 12.2816 7.32973 13.3792 7.83549 14.8351C7.83823 14.8514 7.92321 15.3242 8.37278 16.3351C8.56878 16.7751 8.83469 17.3199 9.19379 17.9709C9.26369 18.0969 9.33634 18.2261 9.41172 18.3602C10.1806 19.7081 11.3169 21.4732 12.9959 23.7044C13.8402 24.8266 14.8216 26.0665 15.962 27.4291C15.9729 27.4455 16.7885 28.5824 19.1172 28.6086C19.8806 28.6167 20.8264 28.6396 21.8297 28.6642C23.532 28.7067 25.4043 28.7509 27.145 28.7492V28.728C27.426 28.7345 27.7138 28.7411 28.0071 28.7443C28.2991 28.7411 28.5855 28.7345 28.8651 28.728V28.7492C30.6058 28.7525 32.4781 28.7067 34.1805 28.6642C35.1824 28.6396 36.1295 28.6167 36.8929 28.6086C39.2258 28.5824 40.0358 27.4439 40.0427 27.4341C41.1844 26.0682 42.1671 24.8266 43.0114 23.7044C44.6905 21.4732 45.8281 19.7081 46.5957 18.3602C46.671 18.2261 46.7437 18.0969 46.8136 17.9709C47.1727 17.3182 47.4386 16.7751 47.6332 16.3368C48.0828 15.3291 48.1664 14.8596 48.1691 14.8465C48.6777 13.3792 47.3961 12.2832 47.3838 12.2718C47.3714 12.2603 47.3577 12.2472 47.3427 12.2341C47.0877 12.0068 46.5299 11.6191 46.0707 11.3099L46.0721 11.2985L46.0776 11.1758C46.0872 11.1823 46.0981 11.1872 46.1063 11.1954C46.5477 11.4915 47.0877 11.8645 47.3646 12.1033C47.3961 12.1295 47.4235 12.154 47.4482 12.1769C47.4564 12.1851 48.801 13.335 48.2665 14.8776Z" fill="#0A2D42"/>
<path d="M55.9219 33.7061C55.8712 35.7721 55.7848 38.2896 55.6327 40.7662C55.6327 40.7662 55.6327 41.764 53.33 41.8753C53.33 41.8753 32.4278 41.9865 27.9993 41.8753C23.5708 41.9865 2.66862 41.8753 2.66862 41.8753C0.365958 41.764 0.365958 40.7662 0.365958 40.7662C0.213818 38.2896 0.127468 35.7721 0.078125 33.7061C6.99983 33.8729 22.0302 34.2164 28.0034 34.2164C33.9753 34.2164 49.0015 33.8729 55.9219 33.7061Z" fill="#808184"/>
<path d="M42.438 3.78852C37.2735 2.80377 28.0012 2.71871 28.0012 2.71871C28.0012 2.71871 18.7261 2.80377 13.5615 3.78852L13.9576 0.826078C14.5347 0.644503 15.0802 0.593793 15.5119 0.562713C22.6063 0.0719708 27.9998 0.119409 27.9998 0.119409C27.9998 0.119409 33.3919 0.0719708 40.4876 0.562713C40.9194 0.593793 41.4649 0.644503 42.0392 0.826078L42.438 3.78852Z" fill="#939393"/>
<path d="M54.8511 36.3022C54.8511 36.4936 54.64 36.6752 54.3289 36.8387C53.453 37.3033 51.7781 37.6239 51.7781 37.6239C51.1874 37.6239 51.1216 35.5399 51.5794 35.0721C51.637 35.0132 51.7041 34.9805 51.7781 34.9805H53.6463C53.9794 34.9805 54.2795 35.1277 54.4988 35.3665C54.7168 35.6053 54.8511 35.9358 54.8511 36.3022Z" fill="white"/>
<path opacity="0.23" d="M54.8508 36.3022C54.8508 36.4936 54.6397 36.6752 54.3286 36.8387C53.6501 36.1435 52.4988 35.5088 51.5791 35.0721C51.6367 35.0132 51.7038 34.9805 51.7778 34.9805H53.646C53.9791 34.9805 54.2792 35.1277 54.4985 35.3665C54.7165 35.6053 54.8508 35.9358 54.8508 36.3022Z" fill="#939393"/>
<path d="M4.22003 37.6239C4.22003 37.6239 2.54237 37.3 1.66791 36.8371C1.35677 36.6735 1.14844 36.492 1.14844 36.3022C1.14844 35.9374 1.28276 35.607 1.50206 35.3665C1.71999 35.1277 2.02153 34.9805 2.35322 34.9805H4.2214C4.32694 34.9805 4.4174 35.0475 4.48867 35.162C4.86834 35.7575 4.77925 37.6239 4.22003 37.6239Z" fill="white"/>
<path opacity="0.23" d="M4.4873 35.1604C3.63203 35.5498 2.45191 36.155 1.66791 36.8371C1.35677 36.6736 1.14844 36.492 1.14844 36.3022C1.14844 35.9374 1.28276 35.607 1.50206 35.3665C1.71999 35.1277 2.02153 34.9805 2.35323 34.9805H4.2214C4.32557 34.9789 4.41603 35.0459 4.4873 35.1604Z" fill="#939393"/>
<path d="M29.0045 2.03822H26.9951L27.6503 0H28.3507L29.0045 2.03822Z" fill="#434244"/>
</g>
<defs>
<clipPath id="clip0">
<rect width="56" height="47" fill="white"/>
</clipPath>
</defs>
</svg>
