<svg width="65" height="52" viewBox="0 0 65 52" fill="none" xmlns="http://www.w3.org/2000/svg">
<path d="M19.1211 0V7.17H44.9511V0H19.1211ZM20.4821 6.58H19.7121V0.67H20.4821V6.58ZM21.8911 6.58H21.1121V0.67H21.8911V6.58ZM23.2911 6.58H22.5211V0.67H23.2911V6.58ZM24.7011 6.58H23.9301V0.67H24.7011V6.58ZM26.1121 6.58H25.3421V0.67H26.1121V6.58ZM27.5111 6.58H26.7411V0.67H27.5111V6.58ZM28.9211 6.58H28.1511V0.67H28.9211V6.58ZM30.3311 6.58H29.5601V0.67H30.3311V6.58ZM31.7411 6.58H30.9611V0.67H31.7411V6.58ZM33.1411 6.58H32.3721V0.67H33.1411V6.58ZM34.5511 6.58H33.7811V0.67H34.5511V6.58ZM35.9611 6.58H35.1911V0.67H35.9611V6.58ZM37.3711 6.58H36.5911V0.67H37.3711V6.58ZM38.7721 6.58H38.0011V0.67H38.7721V6.58ZM40.1811 6.58H39.4111V0.67H40.1811V6.58ZM41.5911 6.58H40.8211V0.67H41.5911V6.58ZM42.9911 6.58H42.2201V0.67H42.9911V6.58ZM44.4021 6.58H43.6311V0.67H44.4021V6.58Z" fill="#808083"/>
<path d="M44.9511 0H19.1211V7.17H44.9511V0Z" fill="#808184"/>
<path d="M22.0107 21.7595C22.0107 22.0495 21.7817 22.2805 21.4907 22.2805C21.2107 22.2805 20.9707 22.0505 20.9707 21.7595C20.9707 21.4695 21.2107 21.2305 21.4907 21.2305C21.7817 21.2295 22.0107 21.4695 22.0107 21.7595Z" fill="#424241"/>
<path d="M38.4013 37.1986L30.0312 40.5976C30.2412 40.2076 30.4012 39.7876 30.5012 39.3376V39.3276L36.7013 36.8066C37.2403 36.9986 37.8103 37.1286 38.4013 37.1986Z" fill="#424241"/>
<path d="M36.8707 20.1602C36.3207 20.3302 35.8007 20.5593 35.3007 20.8403H35.2907L26.8007 18.9813C26.5707 18.5413 26.2907 18.1402 25.9707 17.7812L36.8707 20.1602Z" fill="#424241"/>
<path d="M21.6604 34.9405C21.3804 35.2805 21.1394 35.6605 20.9604 36.0595L18.1504 26.7305C18.5304 26.9905 18.9404 27.2095 19.3804 27.3605L21.6604 34.9405Z" fill="#424241"/>
<path d="M39.4941 20.7598C35.2141 20.7598 31.7441 24.2308 31.7441 28.5098C31.7441 32.7898 35.2141 36.2698 39.4941 36.2698C43.7741 36.2698 47.2441 32.7908 47.2441 28.5098C47.2441 24.2298 43.7751 20.7598 39.4941 20.7598ZM39.4941 31.0298C38.1041 31.0298 36.9731 29.8998 36.9731 28.5088C36.9731 27.1188 38.1041 25.9898 39.4941 25.9898C40.8841 25.9898 42.0141 27.1198 42.0141 28.5088C42.0141 29.8998 40.8841 31.0298 39.4941 31.0298Z" fill="#434244"/>
<path d="M21.4941 16.7598C18.7341 16.7598 16.4941 18.9998 16.4941 21.7598C16.4941 24.5198 18.7341 26.7498 21.4941 26.7498C24.2541 26.7498 26.4841 24.5188 26.4841 21.7598C26.4851 18.9998 24.2541 16.7598 21.4941 16.7598ZM21.4941 23.2798C20.6541 23.2798 19.9731 22.5988 19.9731 21.7588C19.9731 20.9188 20.6541 20.2298 21.4941 20.2298C22.3341 20.2298 23.0141 20.9188 23.0141 21.7588C23.0141 22.5988 22.3341 23.2798 21.4941 23.2798Z" fill="#424242"/>
<path d="M25.5741 34.0977C23.3141 34.0977 21.4941 35.9277 21.4941 38.1777C21.4941 40.4277 23.3141 42.2577 25.5741 42.2577C27.8241 42.2577 29.6431 40.4277 29.6431 38.1777C29.6431 35.9277 27.8241 34.0977 25.5741 34.0977ZM25.5741 39.4387C24.8741 39.4387 24.3141 38.8687 24.3141 38.1777C24.3141 37.4787 24.8731 36.9177 25.5741 36.9177C26.2641 36.9177 26.8241 37.4777 26.8241 38.1777C26.8241 38.8687 26.2641 39.4387 25.5741 39.4387Z" fill="#424242"/>
<path d="M38.6754 7.95703H25.4004V9.87503H38.6754V7.95703Z" fill="#424241"/>
<path d="M24.911 10.7995L24.691 10.9495L10.021 21.1295L4.00101 25.3095L3.26101 25.8205L0.711005 22.1205C-0.548995 20.2905 -0.0889947 17.8005 1.73201 16.5505L16.841 6.14055C17.241 5.86155 17.681 5.67055 18.121 5.56055V8.17055H23.1L24.911 10.7995Z" fill="#808184"/>
<path d="M13.7905 33.5099H9.44047C8.25947 33.5099 7.82047 32.2009 7.82047 32.2009L4.48047 26.1799L9.54047 22.6699L13.7905 33.5099Z" fill="#424242"/>
<path d="M63.3621 22.1196L60.8111 25.8196L60.0721 25.3086L54.0521 21.1286L39.3821 10.9486L39.1621 10.7986L40.9721 8.16859H45.9521V5.55859C46.3911 5.66859 46.8321 5.85959 47.2321 6.13859L62.3411 16.5486C64.1611 17.7996 64.6211 20.2896 63.3621 22.1196Z" fill="#808184"/>
<path d="M59.5813 26.1887L56.2513 32.1987C56.2513 32.1987 55.8113 33.5077 54.6313 33.5077H50.2812L54.5213 22.6777L59.5813 26.1887Z" fill="#424242"/>
<path d="M39.4907 26.9892C38.6507 26.9892 37.9697 27.6692 37.9697 28.5082C37.9697 29.3482 38.6507 30.0292 39.4907 30.0292C40.3307 30.0292 41.0107 29.3482 41.0107 28.5082C41.0107 27.6692 40.3307 26.9892 39.4907 26.9892ZM39.4907 26.9892C38.6507 26.9892 37.9697 27.6692 37.9697 28.5082C37.9697 29.3482 38.6507 30.0292 39.4907 30.0292C40.3307 30.0292 41.0107 29.3482 41.0107 28.5082C41.0107 27.6692 40.3307 26.9892 39.4907 26.9892ZM35.4017 36.2492C32.6307 34.7792 30.7417 31.8592 30.7417 28.5092C30.7417 25.7092 32.0607 23.2092 34.1217 21.6102L27.2417 20.0992C27.4017 20.6292 27.4817 21.1792 27.4817 21.7592C27.4817 25.0592 24.8007 27.7492 21.4917 27.7492C21.1617 27.7492 20.8317 27.7192 20.5217 27.6692L22.4707 34.1592C23.3307 33.4992 24.4017 33.0982 25.5717 33.0982C28.3717 33.0982 30.6407 35.3782 30.6407 38.1782V38.1892L35.4017 36.2492ZM25.5717 37.9192C25.4217 37.9192 25.3107 38.0292 25.3107 38.1792C25.3107 38.3202 25.4307 38.4402 25.5717 38.4402C25.7117 38.4402 25.8217 38.3202 25.8217 38.1792C25.8217 38.0292 25.7107 37.9192 25.5717 37.9192ZM39.4907 26.9892C38.6507 26.9892 37.9697 27.6692 37.9697 28.5082C37.9697 29.3482 38.6507 30.0292 39.4907 30.0292C40.3307 30.0292 41.0107 29.3482 41.0107 28.5082C41.0107 27.6692 40.3307 26.9892 39.4907 26.9892ZM39.4907 26.9892C38.6507 26.9892 37.9697 27.6692 37.9697 28.5082C37.9697 29.3482 38.6507 30.0292 39.4907 30.0292C40.3307 30.0292 41.0107 29.3482 41.0107 28.5082C41.0107 27.6692 40.3307 26.9892 39.4907 26.9892ZM35.4017 36.2492C32.6307 34.7792 30.7417 31.8592 30.7417 28.5092C30.7417 25.7092 32.0607 23.2092 34.1217 21.6102L27.2417 20.0992C27.4017 20.6292 27.4817 21.1792 27.4817 21.7592C27.4817 25.0592 24.8007 27.7492 21.4917 27.7492C21.1617 27.7492 20.8317 27.7192 20.5217 27.6692L22.4707 34.1592C23.3307 33.4992 24.4017 33.0982 25.5717 33.0982C28.3717 33.0982 30.6407 35.3782 30.6407 38.1782V38.1892L35.4017 36.2492ZM25.5717 37.9192C25.4217 37.9192 25.3107 38.0292 25.3107 38.1792C25.3107 38.3202 25.4307 38.4402 25.5717 38.4402C25.7117 38.4402 25.8217 38.3202 25.8217 38.1792C25.8217 38.0292 25.7107 37.9192 25.5717 37.9192ZM25.5717 37.9192C25.4217 37.9192 25.3107 38.0292 25.3107 38.1792C25.3107 38.3202 25.4307 38.4402 25.5717 38.4402C25.7117 38.4402 25.8217 38.3202 25.8217 38.1792C25.8217 38.0292 25.7107 37.9192 25.5717 37.9192ZM35.4017 36.2492C32.6307 34.7792 30.7417 31.8592 30.7417 28.5092C30.7417 25.7092 32.0607 23.2092 34.1217 21.6102L27.2417 20.0992C27.4017 20.6292 27.4817 21.1792 27.4817 21.7592C27.4817 25.0592 24.8007 27.7492 21.4917 27.7492C21.1617 27.7492 20.8317 27.7192 20.5217 27.6692L22.4707 34.1592C23.3307 33.4992 24.4017 33.0982 25.5717 33.0982C28.3717 33.0982 30.6407 35.3782 30.6407 38.1782V38.1892L35.4017 36.2492ZM39.4907 26.9892C38.6507 26.9892 37.9697 27.6692 37.9697 28.5082C37.9697 29.3482 38.6507 30.0292 39.4907 30.0292C40.3307 30.0292 41.0107 29.3482 41.0107 28.5082C41.0107 27.6692 40.3307 26.9892 39.4907 26.9892ZM39.4907 26.9892C38.6507 26.9892 37.9697 27.6692 37.9697 28.5082C37.9697 29.3482 38.6507 30.0292 39.4907 30.0292C40.3307 30.0292 41.0107 29.3482 41.0107 28.5082C41.0107 27.6692 40.3307 26.9892 39.4907 26.9892ZM35.4017 36.2492C32.6307 34.7792 30.7417 31.8592 30.7417 28.5092C30.7417 25.7092 32.0607 23.2092 34.1217 21.6102L27.2417 20.0992C27.4017 20.6292 27.4817 21.1792 27.4817 21.7592C27.4817 25.0592 24.8007 27.7492 21.4917 27.7492C21.1617 27.7492 20.8317 27.7192 20.5217 27.6692L22.4707 34.1592C23.3307 33.4992 24.4017 33.0982 25.5717 33.0982C28.3717 33.0982 30.6407 35.3782 30.6407 38.1782V38.1892L35.4017 36.2492ZM25.5717 37.9192C25.4217 37.9192 25.3107 38.0292 25.3107 38.1792C25.3107 38.3202 25.4307 38.4402 25.5717 38.4402C25.7117 38.4402 25.8217 38.3202 25.8217 38.1792C25.8217 38.0292 25.7107 37.9192 25.5717 37.9192ZM25.5717 37.9192C25.4217 37.9192 25.3107 38.0292 25.3107 38.1792C25.3107 38.3202 25.4307 38.4402 25.5717 38.4402C25.7117 38.4402 25.8217 38.3202 25.8217 38.1792C25.8217 38.0292 25.7107 37.9192 25.5717 37.9192ZM35.4017 36.2492C32.6307 34.7792 30.7417 31.8592 30.7417 28.5092C30.7417 25.7092 32.0607 23.2092 34.1217 21.6102L27.2417 20.0992C27.4017 20.6292 27.4817 21.1792 27.4817 21.7592C27.4817 25.0592 24.8007 27.7492 21.4917 27.7492C21.1617 27.7492 20.8317 27.7192 20.5217 27.6692L22.4707 34.1592C23.3307 33.4992 24.4017 33.0982 25.5717 33.0982C28.3717 33.0982 30.6407 35.3782 30.6407 38.1782V38.1892L35.4017 36.2492ZM39.4907 26.9892C38.6507 26.9892 37.9697 27.6692 37.9697 28.5082C37.9697 29.3482 38.6507 30.0292 39.4907 30.0292C40.3307 30.0292 41.0107 29.3482 41.0107 28.5082C41.0107 27.6692 40.3307 26.9892 39.4907 26.9892ZM38.6007 11.6192L37.7717 11.0582L37.8507 10.9492H26.2207L26.3007 11.0582L25.2507 11.7792L18.6907 16.3192L18.7597 16.4192C19.5797 15.9992 20.4997 15.7592 21.4897 15.7592C22.4097 15.7592 23.2897 15.9692 24.0587 16.3392L39.7697 19.7692C44.4687 19.9102 48.2397 23.7692 48.2397 28.5092C48.2397 32.2092 45.9397 35.3792 42.6897 36.6692L42.4997 36.7392L38.7797 38.1292L28.5497 42.2792C27.7197 42.8992 26.6797 43.2582 25.5697 43.2582C22.7697 43.2582 20.4897 40.9792 20.4897 38.1782C20.4897 38.1182 20.4897 38.0692 20.4997 38.0082L16.6897 25.3382C15.9287 24.3382 15.4897 23.0982 15.4897 21.7582C15.4897 20.0882 16.1697 18.5782 17.2797 17.4982L17.1897 17.3682L10.3887 22.0782L14.8597 33.5082L22.0697 51.9492H41.9997L49.2097 33.5082L53.6797 22.0882V22.0782L38.6007 11.6192ZM41.0107 28.5092C41.0107 27.6692 40.3307 26.9902 39.4907 26.9902C38.6507 26.9902 37.9697 27.6702 37.9697 28.5092C37.9697 29.3492 38.6507 30.0302 39.4907 30.0302C40.3307 30.0292 41.0107 29.3482 41.0107 28.5092ZM21.4907 27.7492C21.1607 27.7492 20.8307 27.7192 20.5207 27.6692L22.4697 34.1592C23.3297 33.4992 24.4007 33.0982 25.5707 33.0982C28.3707 33.0982 30.6397 35.3782 30.6397 38.1782V38.1892L35.4007 36.2492C32.6297 34.7792 30.7407 31.8592 30.7407 28.5092C30.7407 25.7092 32.0597 23.2092 34.1207 21.6102L27.2407 20.0992C27.4007 20.6292 27.4807 21.1792 27.4807 21.7592C27.4817 25.0582 24.8007 27.7492 21.4907 27.7492ZM25.3107 38.1792C25.3107 38.3202 25.4307 38.4402 25.5717 38.4402C25.7117 38.4402 25.8217 38.3202 25.8217 38.1792C25.8217 38.0292 25.7117 37.9192 25.5717 37.9192C25.4207 37.9192 25.3107 38.0292 25.3107 38.1792ZM39.4907 26.9892C38.6507 26.9892 37.9697 27.6692 37.9697 28.5082C37.9697 29.3482 38.6507 30.0292 39.4907 30.0292C40.3307 30.0292 41.0107 29.3482 41.0107 28.5082C41.0107 27.6692 40.3307 26.9892 39.4907 26.9892ZM35.4017 36.2492C32.6307 34.7792 30.7417 31.8592 30.7417 28.5092C30.7417 25.7092 32.0607 23.2092 34.1217 21.6102L27.2417 20.0992C27.4017 20.6292 27.4817 21.1792 27.4817 21.7592C27.4817 25.0592 24.8007 27.7492 21.4917 27.7492C21.1617 27.7492 20.8317 27.7192 20.5217 27.6692L22.4707 34.1592C23.3307 33.4992 24.4017 33.0982 25.5717 33.0982C28.3717 33.0982 30.6407 35.3782 30.6407 38.1782V38.1892L35.4017 36.2492ZM25.5717 37.9192C25.4217 37.9192 25.3107 38.0292 25.3107 38.1792C25.3107 38.3202 25.4307 38.4402 25.5717 38.4402C25.7117 38.4402 25.8217 38.3202 25.8217 38.1792C25.8217 38.0292 25.7107 37.9192 25.5717 37.9192ZM25.5717 37.9192C25.4217 37.9192 25.3107 38.0292 25.3107 38.1792C25.3107 38.3202 25.4307 38.4402 25.5717 38.4402C25.7117 38.4402 25.8217 38.3202 25.8217 38.1792C25.8217 38.0292 25.7107 37.9192 25.5717 37.9192ZM35.4017 36.2492C32.6307 34.7792 30.7417 31.8592 30.7417 28.5092C30.7417 25.7092 32.0607 23.2092 34.1217 21.6102L27.2417 20.0992C27.4017 20.6292 27.4817 21.1792 27.4817 21.7592C27.4817 25.0592 24.8007 27.7492 21.4917 27.7492C21.1617 27.7492 20.8317 27.7192 20.5217 27.6692L22.4707 34.1592C23.3307 33.4992 24.4017 33.0982 25.5717 33.0982C28.3717 33.0982 30.6407 35.3782 30.6407 38.1782V38.1892L35.4017 36.2492ZM39.4907 26.9892C38.6507 26.9892 37.9697 27.6692 37.9697 28.5082C37.9697 29.3482 38.6507 30.0292 39.4907 30.0292C40.3307 30.0292 41.0107 29.3482 41.0107 28.5082C41.0107 27.6692 40.3307 26.9892 39.4907 26.9892ZM39.4907 26.9892C38.6507 26.9892 37.9697 27.6692 37.9697 28.5082C37.9697 29.3482 38.6507 30.0292 39.4907 30.0292C40.3307 30.0292 41.0107 29.3482 41.0107 28.5082C41.0107 27.6692 40.3307 26.9892 39.4907 26.9892ZM35.4017 36.2492C32.6307 34.7792 30.7417 31.8592 30.7417 28.5092C30.7417 25.7092 32.0607 23.2092 34.1217 21.6102L27.2417 20.0992C27.4017 20.6292 27.4817 21.1792 27.4817 21.7592C27.4817 25.0592 24.8007 27.7492 21.4917 27.7492C21.1617 27.7492 20.8317 27.7192 20.5217 27.6692L22.4707 34.1592C23.3307 33.4992 24.4017 33.0982 25.5717 33.0982C28.3717 33.0982 30.6407 35.3782 30.6407 38.1782V38.1892L35.4017 36.2492ZM25.5717 37.9192C25.4217 37.9192 25.3107 38.0292 25.3107 38.1792C25.3107 38.3202 25.4307 38.4402 25.5717 38.4402C25.7117 38.4402 25.8217 38.3202 25.8217 38.1792C25.8217 38.0292 25.7107 37.9192 25.5717 37.9192ZM35.4017 36.2492C32.6307 34.7792 30.7417 31.8592 30.7417 28.5092C30.7417 25.7092 32.0607 23.2092 34.1217 21.6102L27.2417 20.0992C27.4017 20.6292 27.4817 21.1792 27.4817 21.7592C27.4817 25.0592 24.8007 27.7492 21.4917 27.7492C21.1617 27.7492 20.8317 27.7192 20.5217 27.6692L22.4707 34.1592C23.3307 33.4992 24.4017 33.0982 25.5717 33.0982C28.3717 33.0982 30.6407 35.3782 30.6407 38.1782V38.1892L35.4017 36.2492ZM39.4907 26.9892C38.6507 26.9892 37.9697 27.6692 37.9697 28.5082C37.9697 29.3482 38.6507 30.0292 39.4907 30.0292C40.3307 30.0292 41.0107 29.3482 41.0107 28.5082C41.0107 27.6692 40.3307 26.9892 39.4907 26.9892ZM39.4907 26.9892C38.6507 26.9892 37.9697 27.6692 37.9697 28.5082C37.9697 29.3482 38.6507 30.0292 39.4907 30.0292C40.3307 30.0292 41.0107 29.3482 41.0107 28.5082C41.0107 27.6692 40.3307 26.9892 39.4907 26.9892ZM35.4017 36.2492C32.6307 34.7792 30.7417 31.8592 30.7417 28.5092C30.7417 25.7092 32.0607 23.2092 34.1217 21.6102L27.2417 20.0992C27.4017 20.6292 27.4817 21.1792 27.4817 21.7592C27.4817 25.0592 24.8007 27.7492 21.4917 27.7492C21.1617 27.7492 20.8317 27.7192 20.5217 27.6692L22.4707 34.1592C23.3307 33.4992 24.4017 33.0982 25.5717 33.0982C28.3717 33.0982 30.6407 35.3782 30.6407 38.1782V38.1892L35.4017 36.2492ZM39.4907 26.9892C38.6507 26.9892 37.9697 27.6692 37.9697 28.5082C37.9697 29.3482 38.6507 30.0292 39.4907 30.0292C40.3307 30.0292 41.0107 29.3482 41.0107 28.5082C41.0107 27.6692 40.3307 26.9892 39.4907 26.9892ZM39.4907 26.9892C38.6507 26.9892 37.9697 27.6692 37.9697 28.5082C37.9697 29.3482 38.6507 30.0292 39.4907 30.0292C40.3307 30.0292 41.0107 29.3482 41.0107 28.5082C41.0107 27.6692 40.3307 26.9892 39.4907 26.9892ZM25.5717 37.9192C25.4217 37.9192 25.3107 38.0292 25.3107 38.1792C25.3107 38.3202 25.4307 38.4402 25.5717 38.4402C25.7117 38.4402 25.8217 38.3202 25.8217 38.1792C25.8217 38.0292 25.7107 37.9192 25.5717 37.9192ZM35.4017 36.2492C32.6307 34.7792 30.7417 31.8592 30.7417 28.5092C30.7417 25.7092 32.0607 23.2092 34.1217 21.6102L27.2417 20.0992C27.4017 20.6292 27.4817 21.1792 27.4817 21.7592C27.4817 25.0592 24.8007 27.7492 21.4917 27.7492C21.1617 27.7492 20.8317 27.7192 20.5217 27.6692L22.4707 34.1592C23.3307 33.4992 24.4017 33.0982 25.5717 33.0982C28.3717 33.0982 30.6407 35.3782 30.6407 38.1782V38.1892L35.4017 36.2492ZM39.4907 26.9892C38.6507 26.9892 37.9697 27.6692 37.9697 28.5082C37.9697 29.3482 38.6507 30.0292 39.4907 30.0292C40.3307 30.0292 41.0107 29.3482 41.0107 28.5082C41.0107 27.6692 40.3307 26.9892 39.4907 26.9892Z" fill="#808184"/>
</svg>
