<svg width="132" height="49" viewBox="0 0 132 49" fill="none" xmlns="http://www.w3.org/2000/svg">
<g>
<path d="M0 37.4922C0 38.7395 1.40745 41.6498 3.65878 41.6498C5.91011 41.6498 18.1525 41.6498 20.4042 41.6498C22.656 41.6498 24.9073 40.1252 28.0734 40.1252C31.2396 40.1252 99.3463 40.1252 104.905 40.1252C110.463 40.1252 118.765 40.1252 120.77 40.1252C122.776 40.1252 127.56 38.8779 129.671 37.4922C131.782 36.1061 131.993 35.7598 131.993 34.8588C131.993 33.9583 131.993 30.2165 131.993 29.385C131.993 28.5535 129.46 27.6526 129.46 26.1974C129.46 24.7423 129.46 20.2384 129.46 18.1596C129.46 16.0809 110.463 2.77674 104.412 1.3216C98.3615 -0.133536 71.8361 -0.272398 64.73 0.351234C57.624 0.974865 42.3565 8.38901 32.7171 15.3878C22.374 15.3878 11.2579 17.9468 6.40318 20.825C1.54845 23.7029 0.000422321 28.6229 0.000422321 30.7017C0.000422321 32.7805 0 37.4922 0 37.4922Z" fill="#808184"/>
<path d="M26.5248 48.7177C32.6449 48.7177 37.6063 43.8316 37.6063 37.8042C37.6063 31.7768 32.6449 26.8906 26.5248 26.8906C20.4047 26.8906 15.4434 31.7768 15.4434 37.8042C15.4434 43.8316 20.4047 48.7177 26.5248 48.7177Z" fill="#434244"/>
<path d="M26.5242 45.5276C30.8544 45.5276 34.3648 42.0704 34.3648 37.8058C34.3648 33.5412 30.8544 30.084 26.5242 30.084C22.194 30.084 18.6836 33.5412 18.6836 37.8058C18.6836 42.0704 22.194 45.5276 26.5242 45.5276Z" fill="#C3C2C2"/>
<path d="M109.689 48.7177C115.809 48.7177 120.77 43.8316 120.77 37.8042C120.77 31.7768 115.809 26.8906 109.689 26.8906C103.569 26.8906 98.6074 31.7768 98.6074 37.8042C98.6074 43.8316 103.569 48.7177 109.689 48.7177Z" fill="#434244"/>
<path d="M109.688 45.5276C114.019 45.5276 117.529 42.0704 117.529 37.8058C117.529 33.5412 114.019 30.084 109.688 30.084C105.358 30.084 101.848 33.5412 101.848 37.8058C101.848 42.0704 105.358 45.5276 109.688 45.5276Z" fill="#C3C2C2"/>
<path d="M3.76298 23.8734C3.76298 23.8734 2.49652 25.3976 2.25041 26.1251C2.0043 26.8527 2.25041 27.6842 3.27075 27.6842C4.29109 27.6842 8.30151 27.6842 9.25135 27.6842C10.2012 27.6842 11.9603 26.264 12.9452 25.1207C13.93 23.9774 15.4076 22.106 14.9854 21.8637C14.5633 21.6213 9.11035 22.3143 3.76298 23.8734Z" fill="white"/>
<path d="M6.75905 35.5187C6.40698 34.8298 5.55423 34.2715 4.85473 34.2715H0C0 35.9686 0 37.4936 0 37.4936C0 37.8374 0.110604 38.3093 0.312814 38.8103H7.17656C7.87606 38.8103 8.15721 38.2519 7.80514 37.563L6.75905 35.5187Z" fill="#434244"/>
<path d="M32.7168 15.39C32.7168 15.39 35.7419 15.39 36.5157 15.39C37.29 15.39 38.5564 15.2516 39.7524 14.524C40.9483 13.7965 46.2868 9.84679 49.664 7.89773C53.0412 5.94868 54.9548 4.96251 55.2575 4.83155C55.7983 4.59748 56.036 3.92188 55.3369 3.92188C54.7298 3.92188 53.1164 3.92188 53.1164 3.92188C53.1164 3.92188 42.4617 8.11434 32.7168 15.39Z" fill="#F1F2F2"/>
<path d="M44.7484 14.0349C44.1329 14.5084 43.4469 15.8019 44.7484 15.8713C46.0503 15.9407 71.3793 14.9708 72.5757 14.9533C73.7717 14.9358 74.1233 14.2428 74.3344 13.4462C74.5455 12.6496 76.023 5.3735 76.0935 4.74986C76.164 4.12623 76.1636 3.53711 75.0732 3.53711C73.9827 3.53711 65.5748 3.84893 60.8606 5.33857C56.1469 6.82864 49.8847 10.0852 44.7484 14.0349Z" fill="#F1F2F2"/>
<path d="M79.2229 4.82114C79.2229 4.82114 78.9062 13.0668 78.9062 13.4825C78.9062 13.8983 79.1169 14.5914 79.9262 14.5914C80.7354 14.5914 106.346 14.0022 107.401 13.9677C108.457 13.9332 108.949 13.5865 108.773 12.8589C108.597 12.1313 102.863 5.2714 98.1487 4.05864C93.435 2.84589 81.1572 3.53895 80.5594 3.53895C79.9616 3.53895 79.2625 3.78591 79.2229 4.82114Z" fill="#F1F2F2"/>
<path d="M111.872 4.84375C111.064 5.18301 109.951 5.64948 109.69 5.75675C109.268 5.93012 109.338 6.62276 110.499 7.28132C111.66 7.93987 115.389 11.0231 116.866 12.3743C118.344 13.7255 119.329 14.1413 120.385 14.1413C121.013 14.1413 123.56 14.1413 125.52 14.1413C121.946 11.2809 116.54 7.56195 111.872 4.84375Z" fill="#F1F2F2"/>
<path d="M129.46 26.1974C129.46 24.8736 129.46 21.032 129.46 18.7832C127.97 18.7832 124.15 18.7832 123.445 18.7832C122.565 18.7832 122.107 19.1121 122.565 20.351C123.023 21.59 125.273 24.9156 125.907 25.4008C126.54 25.886 127.103 26.2672 127.912 26.2672C128.27 26.2672 128.888 26.2672 129.468 26.2672C129.466 26.2431 129.46 26.221 129.46 26.1974Z" fill="#6D6D70"/>
<path d="M131.992 32.6262C131.992 32.0379 131.992 31.4243 131.992 30.8809H130.047C129.557 30.8809 129.16 31.2717 129.16 31.7535C129.16 32.2354 129.557 32.6262 130.047 32.6262H131.992Z" fill="#434244"/>
</g>
</svg>
