<svg width="72" height="57" viewBox="0 0 72 57" fill="none" xmlns="http://www.w3.org/2000/svg">
<path d="M65.412 17.0391C65.412 17.5049 65.0058 18.2386 64.4434 18.3608L65.0464 19.4811C65.0464 19.4811 65.5664 18.5905 66.8341 18.9747H67.3783V17.0391H65.412Z" fill="#808184"/>
<path d="M71.998 16.8486C72.0467 17.8343 70.6738 18.7876 69.3062 19.1385C67.2932 19.6545 65.3867 18.6835 65.3867 16.6698C65.3867 14.7152 66.7312 13.7046 68.6931 14.2832C70.0457 14.6819 71.9497 15.8772 71.998 16.8486Z" fill="#808184"/>
<path d="M6.58734 17.0391C6.58734 17.5049 6.99352 18.2386 7.556 18.3608L6.953 19.4811C6.953 19.4811 6.43298 18.5905 5.16524 18.9747H4.62109V17.0391H6.58734Z" fill="#808184"/>
<path d="M0.00125963 16.8486C-0.0474625 17.8343 1.32544 18.7876 2.69304 19.1385C4.70608 19.6545 6.613 18.6835 6.613 16.6698C6.613 14.7152 5.26856 13.7046 3.30616 14.2832C1.95352 14.6819 0.0494994 15.8772 0.00125963 16.8486Z" fill="#808184"/>
<path d="M59.9102 54.2849C59.9102 55.2324 60.669 56.0015 61.6043 56.0015H66.8991C67.8345 56.0015 68.5933 55.2329 68.5933 54.2849V37.8372C68.5933 36.8897 67.8345 36.1211 66.8991 36.1211H61.6043C60.669 36.1211 59.9102 36.8893 59.9102 37.8372V54.2849Z" fill="#424242"/>
<path d="M3.41016 54.2849C3.41016 55.2324 4.16897 56.0015 5.10434 56.0015H10.3991C11.3345 56.0015 12.0933 55.2329 12.0933 54.2849V37.8372C12.0933 36.8897 11.3345 36.1211 10.3991 36.1211H5.10434C4.16897 36.1211 3.41016 36.8893 3.41016 37.8372V54.2849Z" fill="#424242"/>
<path d="M67.9796 25.0636C67.6178 22.6203 65.7485 19.8716 64.7234 17.7948C63.6983 15.7181 59.9197 5.94497 58.9949 4.23468C58.0701 2.52439 56.1005 0.783313 53.6885 0.416822C51.2765 0.0503312 40.6238 0 36.0009 0C31.3781 0 20.7249 0.0503312 18.3129 0.416822C15.9009 0.783313 13.9313 2.52439 13.0065 4.23468C12.0818 5.94497 8.30315 15.7181 7.27805 17.7948C6.25296 19.8716 4.38367 22.6203 4.02187 25.0636C3.66007 27.5068 3.78067 41.9832 4.38367 44.3654C4.98667 46.7476 7.21775 48.2136 8.96644 48.2136C10.7151 48.2136 36.0009 48.2136 36.0009 48.2136C36.0009 48.2136 61.2863 48.2136 63.035 48.2136C64.7837 48.2136 67.0148 46.7476 67.6178 44.3654C68.2208 41.9832 68.3414 27.5068 67.9796 25.0636Z" fill="#808184"/>
<path d="M3.8418 34.9199C3.90451 39.0808 4.08444 43.1924 4.3816 44.3661C4.9846 46.7483 7.21568 48.2143 8.96437 48.2143C10.7131 48.2143 35.9989 48.2143 35.9989 48.2143C35.9989 48.2143 61.2842 48.2143 63.0329 48.2143C64.7816 48.2143 67.0127 46.7483 67.6157 44.3661C67.9128 43.1924 68.0928 39.0808 68.1555 34.9199H3.8418Z" fill="#808184"/>
<path d="M64.8765 43.8818C65.2209 44.7359 64.8007 45.444 63.931 45.444H8.06791C7.19815 45.444 6.77798 44.7359 7.12193 43.8818L8.33516 40.8726C8.64389 40.1074 9.53729 39.498 10.3366 39.498H61.6618C62.4611 39.498 63.3545 40.1069 63.6627 40.8726L64.8765 43.8818Z" fill="#424242"/>
<path d="M48.843 30.1343C48.4812 29.0348 46.9134 28.1797 45.3457 28.1797C43.7779 28.1797 35.9992 28.1797 35.9992 28.1797C35.9992 28.1797 28.2206 28.1797 26.6528 28.1797C25.085 28.1797 23.5172 29.0348 23.1554 30.1343C22.7936 31.2338 24.4217 35.7592 25.0247 36.5811C25.6277 37.403 26.291 37.6068 28.2206 37.6068C30.1501 37.6068 35.9992 37.6068 35.9992 37.6068C35.9992 37.6068 41.8483 37.6068 43.7779 37.6068C45.7075 37.6068 46.3708 37.403 46.9737 36.5811C47.5767 35.7587 49.2048 31.2338 48.843 30.1343Z" fill="#424242"/>
<path d="M62.1901 15.8862C61.8886 14.8272 58.9942 7.35473 58.15 5.58336C57.3059 3.81199 56.1602 3.20117 55.316 3.20117C54.5393 3.20117 17.4608 3.20117 16.6837 3.20117C15.8395 3.20117 14.6938 3.81199 13.8496 5.58336C13.0054 7.35473 10.111 14.8272 9.8095 15.8862C9.508 16.9446 9.9904 17.4332 10.7743 17.4332C11.5037 17.4332 60.4955 17.4332 61.2253 17.4332C62.0092 17.4332 62.4916 16.9446 62.1901 15.8862Z" fill="#F1F2F2"/>
<path d="M52.1445 28.177C52.1445 28.177 54.7977 31.5365 56.1243 31.5365C57.4509 31.5365 62.5764 31.5365 63.7824 31.5365C64.9884 31.5365 65.2899 30.8035 65.5311 30.1316C65.7723 29.4597 65.8928 25.9169 65.5311 24.6953C65.5311 24.6953 60.1644 26.9553 52.1445 28.177Z" fill="white"/>
<path d="M19.8512 28.177C19.8512 28.177 17.198 31.5365 15.8714 31.5365C14.5448 31.5365 9.41935 31.5365 8.21336 31.5365C7.00737 31.5365 6.70587 30.8035 6.46467 30.1316C6.22347 29.4597 6.10287 25.9169 6.46467 24.6953C6.46467 24.6953 11.8313 26.9553 19.8512 28.177Z" fill="white"/>
</svg>
