<svg style="transform: scaleX(-1);" width="58" height="58" viewBox="0 0 58 58" fill="none" xmlns="http://www.w3.org/2000/svg">
<mask id="mask0" mask-type="alpha" maskUnits="userSpaceOnUse" x="0" y="0" width="58" height="58">
<circle cx="29" cy="29" r="28.5" fill="white" stroke="#BABCBE"/>
</mask>
<g mask="url(#mask0)">
<path d="M17.9386 7.56055C17.9386 8.43209 18.6985 9.80479 19.7509 10.0334L18.6227 12.1295C18.6227 12.1295 17.6497 10.4632 15.2778 11.1821H14.2598V7.56055H17.9386Z" fill="#808184"/>
<path d="M5.61564 7.20276C5.52448 9.04681 8.09314 10.8305 10.6519 11.487C14.4182 12.4524 17.986 10.6358 17.986 6.86814C17.986 3.21111 15.4706 1.32043 11.799 2.40291C9.26826 3.14894 5.70589 5.38522 5.61564 7.20276Z" fill="#808184"/>
<path d="M11.9902 77.2456C11.9902 79.0183 13.4099 80.4573 15.16 80.4573H25.0664C26.8164 80.4573 28.2361 79.0192 28.2361 77.2456V46.4726C28.2361 44.6998 26.8164 43.2617 25.0664 43.2617H15.16C13.4099 43.2617 11.9902 44.6989 11.9902 46.4726V77.2456Z" fill="#424242"/>
<path d="M132.799 22.5728C132.122 18.0015 128.625 12.8588 126.707 8.97326C124.789 5.08767 117.72 -13.1975 115.989 -16.3974C114.259 -19.5973 110.574 -22.8548 106.061 -23.5405C101.549 -24.2261 81.6176 -24.3203 72.9684 -24.3203C64.3193 -24.3203 44.3874 -24.2261 39.8747 -23.5405C35.3619 -22.8548 31.6768 -19.5973 29.9466 -16.3974C28.2164 -13.1975 21.1468 5.08767 19.2288 8.97326C17.3109 12.8588 13.8135 18.0015 13.1366 22.5728C12.4597 27.1441 12.6853 54.229 13.8135 58.686C14.9417 63.143 19.116 65.8857 22.3878 65.8857C25.6595 65.8857 72.9684 65.8857 72.9684 65.8857C72.9684 65.8857 120.276 65.8857 123.548 65.8857C126.82 65.8857 130.994 63.143 132.122 58.686C133.251 54.229 133.476 27.1441 132.799 22.5728Z" fill="#808184"/>
<path d="M12.8008 41.0156C12.9181 48.8005 13.2548 56.4931 13.8107 58.6891C14.9389 63.1461 19.1132 65.8889 22.385 65.8889C25.6567 65.8889 72.9656 65.8889 72.9656 65.8889C72.9656 65.8889 120.274 65.8889 123.545 65.8889C126.817 65.8889 130.991 63.1461 132.12 58.6891C132.676 56.4931 133.012 48.8005 133.13 41.0156H12.8008Z" fill="#808184"/>
<path d="M126.992 57.7799C127.637 59.378 126.851 60.7028 125.223 60.7028H20.7053C19.078 60.7028 18.2919 59.378 18.9354 57.7799L21.2053 52.1499C21.783 50.7182 23.4545 49.5781 24.95 49.5781H120.978C122.473 49.5781 124.145 50.7173 124.721 52.1499L126.992 57.7799Z" fill="#424242"/>
<path d="M96.9996 32.0594C96.3227 30.0023 93.3894 28.4023 90.4561 28.4023C87.5228 28.4023 72.9692 28.4023 72.9692 28.4023C72.9692 28.4023 58.4156 28.4023 55.4823 28.4023C52.549 28.4023 49.6158 30.0023 48.9389 32.0594C48.2619 34.1165 51.308 42.5834 52.4362 44.1212C53.5644 45.6589 54.8054 46.0402 58.4156 46.0402C62.0258 46.0402 72.9692 46.0402 72.9692 46.0402C72.9692 46.0402 83.9126 46.0402 87.5228 46.0402C91.133 46.0402 92.374 45.6589 93.5022 44.1212C94.6304 42.5825 97.6765 34.1165 96.9996 32.0594Z" fill="#424242"/>
<path d="M121.967 5.40311C121.403 3.42192 115.988 -10.5589 114.408 -13.8731C112.829 -17.1873 110.685 -18.3301 109.106 -18.3301C107.653 -18.3301 38.28 -18.3301 36.826 -18.3301C35.2466 -18.3301 33.103 -17.1873 31.5236 -13.8731C29.9441 -10.5589 24.5288 3.42192 23.9647 5.40311C23.4006 7.38339 24.3032 8.29765 25.7698 8.29765C27.1345 8.29765 118.797 8.29765 120.162 8.29765C121.629 8.29765 122.531 7.38339 121.967 5.40311Z" fill="#F1F2F2"/>
<path d="M42.7542 28.3949C42.7542 28.3949 37.7902 34.6804 35.3082 34.6804C32.8262 34.6804 23.2366 34.6804 20.9802 34.6804C18.7238 34.6804 18.1597 33.3091 17.7085 32.052C17.2572 30.7949 17.0316 24.1665 17.7085 21.8809C17.7085 21.8809 27.7493 26.1093 42.7542 28.3949Z" fill="white"/>
</g>
</svg>
