<svg width="58" height="58" viewBox="0 0 58 58" fill="none" xmlns="http://www.w3.org/2000/svg">
<g>
<mask id="mask0" mask-type="alpha" maskUnits="userSpaceOnUse" x="0" y="0" width="58" height="58">
<circle cx="29" cy="29" r="28.5" fill="white" stroke="#BABCBE"/>
</mask>
<g mask="url(#mask0)">
<path d="M176.71 15.0089H-40V-28.8558C-40 -28.8558 8.20451 -37.3799 60.0022 -37.3799H76.7081C128.677 -37.3799 176.71 -28.8558 176.71 -28.8558V15.0089Z" fill="url(#paint0_linear)"/>
<path d="M68.3549 15.3974C125.475 15.3974 171.779 3.66283 171.779 -10.8125C171.779 -25.2879 125.475 -37.0225 68.3549 -37.0225C11.2353 -37.0225 -35.0693 -25.2879 -35.0693 -10.8125C-35.0693 3.66283 11.2353 15.3974 68.3549 15.3974Z" fill="url(#paint1_linear)"/>
<path d="M176.71 22.413L76.7081 -37.3799H60.0022L-40 22.413V39.4456H176.71V22.413Z" fill="#759D32"/>
<path d="M176.71 26.1462L76.0393 -37.3799H60.6866L-40 26.1462V39.4456H176.71V26.1462Z" fill="#969D61"/>
<path d="M176.71 30.066L74.9349 -37.3799H61.791L-40 30.066V39.4456H176.71V30.066Z" fill="#899661"/>
<path d="M176.71 33.1303L74.9349 -37.3799H61.791L-40 33.1303H176.71Z" fill="url(#paint2_linear)"/>
<path d="M-34.0734 37.4856H-39.082L62.2268 -37.3799H63.1912L-34.0734 37.4856Z" fill="url(#paint3_linear)"/>
<path d="M146.814 -39.2463C159.911 -50.9746 176.726 -59.0009 176.726 -59.0009V-80H-40V-59.0009C-40 -59.0009 -23.1852 -50.9746 -10.088 -39.2463C2.99363 -27.5179 8.37561 -16.8006 9.21558 -14.2496C10.04 -11.6986 9.85332 -10.7653 7.66009 -9.48981C5.46685 -8.19877 -40 11.4626 -40 11.4626V69H176.726V11.4626C176.726 11.4626 131.259 -8.19877 129.081 -9.48981C126.888 -10.7809 126.686 -11.6986 127.51 -14.2496C128.335 -16.8006 133.717 -27.5335 146.814 -39.2463ZM118.317 -15.5718C117.586 -14.2496 116.404 -13.363 114.755 -13.5496C112.966 -13.7519 88.2654 -16.4584 68.3552 -16.4584C48.4449 -16.4584 23.7438 -13.7674 21.955 -13.5496C20.3062 -13.363 19.124 -14.2496 18.3929 -15.5718C17.4441 -17.2673 13.011 -26.3357 7.98674 -36.2442C2.80698 -46.4637 -1.48617 -54.8167 -2.4039 -56.621C-3.3372 -58.4565 -3.0261 -59.7476 -1.08174 -60.292C0.769287 -60.8053 31.1946 -65.3007 68.3707 -65.3007C105.531 -65.3007 135.957 -60.7897 137.823 -60.292C139.752 -59.7631 140.079 -58.4565 139.145 -56.621C138.228 -54.8322 133.934 -46.4637 128.755 -36.2442C123.715 -26.3357 119.266 -17.2673 118.317 -15.5718Z" fill="url(#paint4_linear)"/>
<path d="M10.6311 -7.46762C13.3843 -9.1631 13.7109 -10.703 12.451 -14.0629C11.2066 -17.4227 5.56018 -29.7266 -8.28364 -43.2127C-22.1275 -56.6832 -40 -65.9072 -40 -65.9072V-62.2052C-2.59056 -42.8394 9.85332 -16.2561 10.74 -13.6273C11.6266 -10.9986 11.191 -9.92529 8.90448 -8.58757C6.61792 -7.26541 -40 13.9981 -40 13.9981V17.389C-40 17.3735 7.87786 -5.78769 10.6311 -7.46762Z" fill="url(#paint5_linear)"/>
<path d="M11.4399 -13.876C10.2111 -17.0025 5.2802 -28.1864 -8.61029 -41.4703C-22.5008 -54.7697 -40 -63.6826 -40 -63.6826V-59.0006C-40 -59.0006 -23.1852 -50.9743 -10.088 -39.2459C2.99363 -27.5176 8.37561 -16.8003 9.21558 -14.2493C10.04 -11.6983 9.85332 -10.765 7.66009 -9.48948C5.46685 -8.19843 -40 11.4629 -40 11.4629V15.4294C-40 15.4294 6.69569 -6.33184 9.46445 -7.88733C12.2177 -9.42726 12.6688 -10.7494 11.4399 -13.876Z" fill="url(#paint6_linear)"/>
<path d="M10.32 -13.8763C9.48001 -16.4273 3.36695 -28.2801 -9.73024 -39.9929C-22.8119 -51.7213 -40 -59.001 -40 -59.001C-40 -59.001 -23.1852 -50.9747 -10.088 -39.2463C2.99363 -27.5179 8.37561 -16.8006 9.21558 -14.2496C10.04 -11.6986 9.85332 -10.7654 7.66009 -9.48986C5.46685 -8.1988 -40 11.4625 -40 11.4625V12.9402C-40 12.9402 6.57125 -7.84105 8.76448 -9.11654C10.9577 -10.4076 11.1599 -11.3253 10.32 -13.8763Z" fill="#464646"/>
<path d="M167.331 69.0001H-30.6045L-18.5184 18.7734H155.245L167.331 69.0001Z" fill="#464646"/>
<path d="M-18.6743 68.9995H-40V19.1306C-40 19.1306 -31.4604 14.8997 -18.161 8.14891C-4.86157 1.41366 10.3044 -6.25488 10.3044 -6.25488L11.5799 17.8707C11.5955 17.8863 -0.677315 41.7163 -18.6743 68.9995Z" fill="url(#paint7_linear)"/>
<path d="M57.7623 68.9992H-5.12598C-5.12598 68.9992 0.551546 57.5042 6.60239 42.7115C12.5755 28.1211 15.6864 18.1504 15.6864 18.1504H57.1246L61.2933 30.8898C61.2933 30.9054 61.511 45.5269 57.7623 68.9992Z" fill="url(#paint8_linear)"/>
<path d="M10.1335 19.7998C-3.38364 44.3143 -20.0273 68.9998 -20.0273 68.9998H-16.8075C-0.925976 44.3143 11.6112 20.1731 11.6112 20.1731L10.1335 19.7998Z" fill="#393939"/>
<path d="M79.0258 67.2736C79.0258 67.2736 76.1949 29.9109 76.1015 28.9931C76.0082 28.1843 75.5882 27.9043 74.7794 27.9043C73.9705 27.9043 62.7399 27.9043 61.931 27.9043C61.1222 27.9043 60.7022 28.1843 60.6089 28.9931C60.5156 29.9109 57.6846 67.2736 57.6846 67.2736H79.0258Z" fill="#393939"/>
<path d="M-40 25.6326C-40 25.6326 -29.7182 19.6129 -18.4876 13.0021C-8.73473 7.24676 -1.79726 3.18694 -0.164005 2.56475C1.2826 2.02033 2.44921 2.54919 3.05585 4.26022C3.81804 6.37568 4.09803 14.9309 3.25806 18.8818C2.247 23.5794 -3.44608 34.0633 -10.4302 43.754C-17.321 53.3047 -24.4918 60.1799 -29.2205 62.7465C-33.9647 65.2975 -39.9222 66.2152 -39.9222 66.2152L-40 25.6326Z" fill="#464646"/>
<path d="M-40 28.8683C-40 28.8683 -30.0138 22.5686 -19.9498 16.2845C-11.1924 10.8247 -3.16609 5.81605 -1.64172 5.30274C-0.288445 4.85165 0.442635 5.10053 1.00261 6.53157C1.71814 8.28927 1.43814 15.6312 0.644848 18.9288C-0.288445 22.8486 -5.62376 31.4971 -12.4679 39.3834C-19.2032 47.1453 -26.2651 52.7917 -30.6671 54.9227C-35.0847 57.0538 -39.9533 57.8315 -39.9533 57.8315L-40 28.8683Z" fill="url(#paint9_linear)"/>
<path d="M125.177 21.9306C126.608 21.8373 127.183 21.5417 127.883 20.3284C128.583 19.1152 130.87 14.6198 131.336 12.4577C131.803 10.28 131.756 5.33356 131.259 3.31143C130.761 1.2893 126.405 -6.23926 126.405 -6.23926H10.304C10.304 -6.23926 5.94862 1.2893 5.45087 3.31143C4.95311 5.33356 4.90645 10.28 5.3731 12.4577C5.83974 14.6354 8.1263 19.1152 8.82627 20.3284C9.52624 21.5417 10.1018 21.8528 11.5328 21.9306C13.0572 22.0239 123.668 22.0239 125.177 21.9306Z" fill="url(#paint10_linear)"/>
<path d="M50.4982 27.4537C50.4204 27.9981 49.9226 28.4337 49.3782 28.4337H46.1272C45.5828 28.4337 45.2251 27.9981 45.2873 27.4537L46.2206 21.1851C46.2983 20.6562 46.7961 20.2207 47.3405 20.2207H50.5915C51.1359 20.2207 51.4937 20.6562 51.4314 21.1851L50.4982 27.4537Z" fill="#999999"/>
<path d="M49.8914 26.7229C49.8137 27.2673 49.3159 27.7028 48.7715 27.7028H46.7338C46.2049 27.7028 45.8161 27.2673 45.9094 26.7229L46.656 21.6831C46.7338 21.1387 47.2315 20.7031 47.776 20.7031H49.7981C50.3425 20.7031 50.7158 21.1387 50.6381 21.6831L49.8914 26.7229Z" fill="#111111"/>
<path d="M40.9786 25.4938C40.9009 26.0382 40.4031 26.4738 39.8587 26.4738H36.6077C36.0633 26.4738 35.7055 26.0382 35.7678 25.4938L36.4055 21.1851C36.4833 20.6562 36.981 20.2207 37.5255 20.2207H40.7764C41.3053 20.2207 41.6786 20.6562 41.6008 21.1851L40.9786 25.4938Z" fill="#999999"/>
<path d="M40.3409 24.7629C40.2632 25.3074 39.7654 25.7429 39.221 25.7429H37.1833C36.6544 25.7429 36.2811 25.3074 36.3589 24.7629L36.81 21.6831C36.8878 21.1387 37.4011 20.7031 37.9299 20.7031H39.9521C40.4965 20.7031 40.8698 21.1387 40.792 21.6831L40.3409 24.7629Z" fill="#111111"/>
<path d="M31.1476 24.9801C31.0698 25.5245 30.572 25.9601 30.0276 25.9601H26.7767C26.2322 25.9601 25.8745 25.5245 25.9367 24.9801L26.5744 20.6714C26.6522 20.1426 27.1655 19.707 27.6944 19.707H30.9454C31.4742 19.707 31.8475 20.1426 31.7698 20.6714L31.1476 24.9801Z" fill="#999999"/>
<path d="M30.5255 24.2493C30.4477 24.7937 29.9344 25.2292 29.4056 25.2292H27.3679C26.839 25.2292 26.4657 24.7937 26.5435 24.2493L26.9946 21.1694C27.0723 20.625 27.5856 20.1895 28.1145 20.1895H30.1522C30.6811 20.1895 31.0544 20.625 30.9766 21.1694L30.5255 24.2493Z" fill="#111111"/>
<path d="M74.655 23.486C75.8372 23.486 76.1794 23.9215 76.1794 24.8704C76.1794 25.4926 76.1794 30.8901 76.1794 30.8901C76.1794 30.8901 77.6415 31.0612 78.0771 30.7501C78.3882 30.5168 79.337 27.8258 80.1614 26.037C81.1414 23.906 81.5614 23.7504 84.2679 23.5793C87.0211 23.4082 123.171 22.0238 124.679 21.9305C126.11 21.8372 126.577 21.5728 127.215 20.3284C127.853 19.0684 129.766 14.4642 130.155 12.271C130.544 10.0777 130.668 5.52015 130.279 3.46691C129.89 1.41366 126.437 -6.25488 126.437 -6.25488C126.437 -6.25488 123.762 -6.30155 122.377 -7.46816C121.008 -8.63477 119.935 -12.0102 119.935 -12.0102C119.935 -12.0102 93.7564 -14.7012 68.3864 -14.7012C43.0164 -14.7012 16.8376 -12.0102 16.8376 -12.0102C16.8376 -12.0102 15.7643 -8.63477 14.3955 -7.46816C13.0267 -6.30155 10.3357 -6.25488 10.3357 -6.25488C10.3357 -6.25488 6.88249 1.41366 6.49361 3.46691C6.10474 5.50459 6.22918 10.0777 6.61805 12.271C7.00692 14.4642 8.90462 19.0684 9.55792 20.3284C10.1957 21.5883 10.6623 21.8527 12.0934 21.9305C13.6022 22.0238 49.7517 23.4238 52.5049 23.5793C55.2114 23.7504 55.6314 23.906 56.6114 26.037C57.4358 27.8258 58.3846 30.5168 58.6957 30.7501C59.1313 31.0612 60.5934 30.8901 60.5934 30.8901C60.5934 30.8901 60.5934 25.4926 60.5934 24.8704C60.5934 23.9215 60.9356 23.486 62.1178 23.486H74.655Z" fill="#464646"/>
<path d="M68.3548 1.9585C95.467 1.9585 116.124 -3.53237 116.124 -3.53237C116.124 -3.53237 91.2205 -9.19434 68.3548 -9.19434C45.4892 -9.19434 20.5703 -3.53237 20.5703 -3.53237C20.5703 -3.53237 41.2427 1.9585 68.3548 1.9585Z" fill="#323232"/>
<path d="M68.3548 3.91807C91.1738 3.91807 108.564 -4.06157 108.564 -4.06157C108.564 -4.06157 87.6117 -8.83691 68.3548 -8.83691C49.1135 -8.83691 28.1455 -4.06157 28.1455 -4.06157C28.1455 -4.06157 45.5358 3.91807 68.3548 3.91807Z" fill="#828282"/>
<path d="M68.3554 2.70509C84.548 2.70509 99.3407 -2.848 99.3407 -2.848C99.3407 -2.848 86.1346 -8.12109 68.3554 -8.12109C50.5762 -8.12109 37.3701 -2.848 37.3701 -2.848C37.3701 -2.848 52.1628 2.70509 68.3554 2.70509Z" fill="#9D9D9D"/>
<path d="M75.5881 22.9115C75.5881 22.9115 76.0392 14.5119 77.9058 9.72097C79.7568 4.91452 81.4678 3.7168 81.4678 3.7168C81.4678 3.7168 75.9614 4.55676 68.3706 4.55676C60.7799 4.55676 55.2734 3.7168 55.2734 3.7168C55.2734 3.7168 56.9845 4.93008 58.8355 9.72097C60.6865 14.5119 61.1532 22.9115 61.1532 22.9115H75.5881Z" fill="url(#paint11_linear)"/>
<path d="M43.6229 -1.46391C34.7567 -3.87491 10.3044 -6.23926 10.3044 -6.23926C10.3044 -6.23926 6.85124 1.42929 6.46236 3.48253C6.07349 5.52022 6.19793 10.0934 6.5868 12.2866C6.97567 14.4798 8.87337 19.0841 9.52667 20.344C10.1644 21.6039 10.6311 21.8684 12.0621 21.9462C13.5709 22.0395 49.7204 23.4394 52.4736 23.595C55.1802 23.7661 55.6002 23.9216 56.5801 26.0526C57.4045 27.8414 58.3534 30.5324 58.6645 30.7658C59.1 31.0769 60.5622 30.9058 60.5622 30.9058C60.5622 30.9058 60.5622 25.5082 60.5622 24.886C60.5622 24.886 59.9711 15.9109 57.6067 9.58004C55.2268 3.23365 52.4892 0.947093 43.6229 -1.46391Z" fill="url(#paint12_linear)"/>
<path d="M43.6225 -1.46391C34.7562 -3.87491 10.304 -6.23926 10.304 -6.23926C10.304 -6.23926 6.85079 1.42929 6.46191 3.48253C6.46191 3.48253 39.4071 3.76252 57.9641 9.56449C55.5997 3.23366 52.4887 0.947093 43.6225 -1.46391Z" fill="url(#paint13_linear)"/>
<path d="M47.6829 14.3403C39.0344 13.6714 6.60254 12.2715 6.60254 12.2715C6.99141 14.4647 8.88911 18.8667 9.54241 20.1267C10.1802 21.3866 10.6468 21.6511 12.0778 21.7288C13.5867 21.8222 49.7362 23.2065 52.4894 23.3777C55.1959 23.5488 55.6159 23.7043 56.5959 25.8353C57.4203 27.6241 58.3691 30.5173 58.6802 30.7507C58.6802 30.7507 58.1824 23.3154 56.5181 19.6134C54.8537 15.958 52.956 14.7603 47.6829 14.3403Z" fill="url(#paint14_linear)"/>
<path d="M47.6829 14.3403C39.0344 13.6714 6.60254 12.2715 6.60254 12.2715C6.99141 14.4647 8.88911 19.2401 9.54241 20.5C10.1802 21.7599 10.6468 22.0244 12.0778 22.1022C13.5867 22.1955 49.7362 23.5799 52.4894 23.751C55.1959 23.9221 55.6159 24.0776 56.5959 26.2086C57.4203 27.9974 58.3691 30.5173 58.6802 30.7507C58.6802 30.7507 58.1824 23.3154 56.5181 19.6134C56.7825 22.5221 56.2848 22.9577 52.956 22.7866C49.5962 22.5844 15.0177 19.5512 13.4311 19.4423C11.8445 19.3334 11.4557 19.069 10.8335 17.9646C10.2113 16.8602 9.04465 14.6358 9.48019 13.8892C9.91572 13.127 47.6829 14.3403 47.6829 14.3403Z" fill="url(#paint15_linear)"/>
<path d="M56.0353 13.8734C56.0353 13.8734 54.1998 10.3113 51.9132 9.08246C49.6266 7.86918 27.8343 4.01157 6.46191 3.46715C27.7876 3.3116 51.151 6.11148 53.3909 7.83807C55.6464 9.59577 56.0353 13.8734 56.0353 13.8734Z" fill="url(#paint16_linear)"/>
<path d="M59.6915 0.169688V-6.37891C51.7586 -6.37891 45.8633 -3.19016 45.8633 -3.19016C45.8633 -3.19016 52.4741 0.169688 59.6915 0.169688Z" fill="#464646"/>
<path d="M57.9804 9.56449C55.6005 3.23366 52.5051 0.947093 43.6388 -1.46391C34.7726 -3.87491 10.3203 -6.23926 10.3203 -6.23926C10.3203 -6.23926 34.8037 -1.55724 43.1722 1.41374C51.5407 4.38471 53.905 7.6979 56.0516 13.8732C58.1982 20.0485 58.6804 30.7502 58.6804 30.7502C59.1159 31.0613 60.5781 30.8902 60.5781 30.8902C60.5781 30.8902 60.5781 25.4927 60.5781 24.8705C60.5625 24.8705 60.3447 15.8953 57.9804 9.56449Z" fill="url(#paint17_linear)"/>
<path d="M57.9804 9.56449C55.6161 3.23366 52.6295 0.822651 43.7633 -1.58835C34.897 -3.99936 10.3203 -6.23926 10.3203 -6.23926C10.3203 -6.23926 34.6481 -3.26828 43.5144 -0.857272C52.4429 1.56929 55.9583 4.92914 57.9804 9.56449Z" fill="#464646"/>
<path d="M49.3627 12.3956C48.6628 13.7955 12.2333 11.9134 10.1178 10.6224C8.00236 9.31574 6.61798 4.94483 7.30239 4.32263C7.98681 3.70044 25.8282 5.987 33.839 7.49583C41.8653 8.98909 50.0627 10.9957 49.3627 12.3956Z" fill="url(#paint18_linear)"/>
<path d="M42.5028 2.44109C41.9584 4.72766 40.7296 5.76983 38.2719 5.76983H28.939C26.4813 5.76983 25.268 4.72766 24.7081 2.44109L23.8214 -1.22986C23.277 -3.51642 24.2103 -4.55859 26.4502 -4.55859H40.7451C42.985 -4.55859 43.9183 -3.51642 43.3739 -1.22986L42.5028 2.44109Z" fill="url(#paint19_linear)"/>
<path d="M17.7393 -3.23665C17.7393 5.53629 24.8478 12.6449 33.6208 12.6449C42.3937 12.6449 49.5023 5.53629 49.5023 -3.23665C49.5023 -12.0096 42.3937 -19.1182 33.6208 -19.1182C24.8478 -19.1182 17.7393 -12.0096 17.7393 -3.23665ZM36.2807 9.36279C36.2807 9.36279 37.4317 4.30746 37.9761 2.30088C38.5206 0.294302 39.2516 -0.421223 41.3982 -0.561216C43.5448 -0.70121 45.2869 -0.732321 45.6758 -0.732321C46.0647 -0.732321 46.1891 -0.561216 46.0958 -0.172344C46.018 0.216526 45.3647 3.24973 42.5493 6.00294C39.7183 8.75615 36.2807 9.36279 36.2807 9.36279ZM33.6208 -7.01649C30.2454 -7.01649 27.6788 -6.09874 25.5478 -5.52321C23.4168 -4.94768 22.2813 -4.68325 21.7369 -4.69881C21.1924 -4.69881 20.9591 -5.0099 20.9902 -5.52321C21.0213 -6.03652 21.3635 -6.73649 22.2191 -7.82533C23.059 -8.91417 24.1168 -9.73858 24.3656 -10.3297C24.6301 -10.9208 24.5367 -11.3563 24.5212 -11.8074C24.5056 -12.2429 24.5678 -12.3674 24.8789 -12.6629C25.2056 -12.9584 28.3477 -16.085 33.6052 -16.085C38.8628 -16.085 42.0048 -12.974 42.3315 -12.6629C42.6581 -12.3674 42.7048 -12.2429 42.6893 -11.8074C42.6737 -11.3718 42.5959 -10.9208 42.8448 -10.3297C43.0937 -9.73858 44.1514 -8.91417 44.9914 -7.82533C45.8313 -6.73649 46.1891 -6.03652 46.2202 -5.52321C46.2513 -5.0099 46.018 -4.71436 45.4736 -4.69881C44.9292 -4.69881 43.7936 -4.94768 41.6626 -5.52321C39.5627 -6.09874 36.9962 -7.01649 33.6208 -7.01649ZM21.5658 -0.732321C21.9546 -0.747875 23.6968 -0.70121 25.8433 -0.561216C27.9899 -0.421223 28.7054 0.294302 29.2654 2.30088C29.8098 4.30746 30.9609 9.36279 30.9609 9.36279C30.9609 9.36279 27.5233 8.75615 24.6923 6.00294C21.8769 3.24973 21.2236 0.216526 21.1458 -0.172344C21.0524 -0.561216 21.1613 -0.732321 21.5658 -0.732321Z" fill="#999999"/>
<path d="M33.6206 -19.0088C24.941 -19.0088 17.9102 -11.978 17.9102 -3.29838C17.9102 5.38123 24.941 12.412 33.6206 12.412C42.3002 12.412 49.331 5.38123 49.331 -3.29838C49.331 -11.9624 42.2846 -19.0088 33.6206 -19.0088ZM33.6206 11.0121C25.812 11.0121 19.4968 4.68126 19.4968 -3.11172C19.4968 -10.9203 25.8276 -17.2355 33.6206 -17.2355C41.4291 -17.2355 47.7444 -10.9047 47.7444 -3.11172C47.7444 4.68126 41.4136 11.0121 33.6206 11.0121Z" fill="url(#paint20_linear)"/>
<path d="M45.8001 -1.61936C45.6446 -1.91491 45.0846 -2.77042 44.8202 -3.11263C44.5557 -3.43928 44.4157 -3.56372 43.9491 -3.68816C43.4824 -3.82815 39.1271 -4.91699 33.6051 -4.91699C28.0987 -4.91699 23.7278 -3.8126 23.2611 -3.68816C22.7945 -3.54816 22.6389 -3.43928 22.39 -3.11263C22.1256 -2.78598 21.5656 -1.91491 21.4101 -1.61936C21.2545 -1.32382 21.3168 -1.18383 21.6279 -1.16827C21.939 -1.15272 24.1789 -1.13716 26.3099 -1.01273C28.4409 -0.888286 29.1097 -0.359418 29.6231 1.58494C30.1208 3.54485 30.8519 7.09136 31.1785 8.19576C31.5052 9.30015 32.2207 9.59569 33.6051 9.59569C34.9739 9.59569 35.705 9.2846 36.0317 8.19576C36.3583 7.09136 37.0894 3.5293 37.5871 1.58494C38.0849 -0.374973 38.7693 -0.903841 40.9003 -1.01273C43.0313 -1.13716 45.2712 -1.15272 45.5823 -1.16827C45.8934 -1.16827 45.9712 -1.32382 45.8001 -1.61936Z" fill="url(#paint21_linear)"/>
<path d="M31.583 0.698242C31.583 0.698242 32.3607 8.13346 32.5163 8.61567C32.6718 9.09787 32.9674 9.26897 33.6207 9.26897C34.274 9.26897 34.5695 9.09787 34.7251 8.61567C34.8806 8.13346 35.6428 0.698242 35.6428 0.698242H31.583Z" fill="url(#paint22_linear)"/>
<path d="M32.3301 1.04102C32.3301 1.04102 32.7656 8.13403 32.8745 8.55402C32.9834 8.974 33.17 9.11399 33.6211 9.11399C34.0567 9.11399 34.2589 8.95844 34.3678 8.55402C34.4767 8.13403 34.9122 1.04102 34.9122 1.04102H32.3301Z" fill="#1E1E1E"/>
<path d="M33.621 11.7114C27.6946 11.7114 23.1214 8.60048 20.3838 4.24512C22.7948 9.05157 27.8812 12.2559 33.621 12.2559C39.3763 12.2559 44.4472 9.05157 46.8582 4.24512C44.1049 8.61603 39.5474 11.7114 33.621 11.7114Z" fill="#4D4D4D"/>
<path d="M36.2809 9.3631C36.2809 9.3631 35.9698 10.0631 35.1143 10.2497C35.1143 10.2497 40.6207 9.72086 43.8561 4.77441C40.4807 8.80312 36.2809 9.3631 36.2809 9.3631Z" fill="black"/>
<path d="M30.961 9.3631C30.961 9.3631 31.2721 10.0631 32.1276 10.2497C32.1276 10.2497 26.6212 9.72086 23.3857 4.77441C26.7611 8.80312 30.961 9.3631 30.961 9.3631Z" fill="black"/>
<path d="M28.7829 -6.44129C29.2651 -6.86127 31.4273 -7.49902 33.6205 -7.49902C35.8137 -7.49902 37.9759 -6.86127 38.4581 -6.44129C38.9403 -6.02131 39.8891 -3.92141 39.7024 -3.06589C39.5158 -2.21037 35.9693 1.53835 33.6205 1.53835C31.2562 1.53835 27.7096 -2.19482 27.5385 -3.06589C27.3674 -3.93696 28.2852 -6.02131 28.7829 -6.44129Z" fill="black"/>
<path d="M29.0788 -6.394C29.5298 -6.78287 31.552 -7.3584 33.6052 -7.3584C35.674 -7.3584 37.6806 -6.76732 38.1317 -6.394C38.5828 -6.00513 39.4694 -4.07632 39.2983 -3.26747C39.1272 -2.47417 35.7985 0.776793 33.5897 0.776793C31.3809 0.776793 28.0521 -2.47417 27.881 -3.26747C27.741 -4.06077 28.6277 -6.00513 29.0788 -6.394Z" fill="url(#paint23_linear)"/>
<path d="M33.6205 -4.03027C35.9538 -4.03027 38.847 -3.53252 38.9403 -3.08143C39.0336 -2.63034 35.7516 0.620632 33.6205 0.620632C31.4895 0.620632 28.2074 -2.63034 28.3008 -3.08143C28.3785 -3.54807 31.2873 -4.03027 33.6205 -4.03027Z" fill="url(#paint24_linear)"/>
<path d="M33.621 -3.78125C34.8965 -3.78125 36.0009 -3.53237 36.1253 -3.1435C36.2653 -2.75463 34.7876 0.496336 33.621 0.496336C32.4544 0.496336 30.9767 -2.77018 31.1167 -3.1435C31.2411 -3.53237 32.3455 -3.78125 33.621 -3.78125Z" fill="#999999"/>
<path d="M57.9492 57.7074C59.178 49.9611 57.887 38.9794 56.3782 36.1795C54.7294 33.0841 51.665 31.6997 47.403 31.0775C40.3878 30.0509 23.4952 29.5687 15.8111 30.3776C9.85359 31.0153 4.64271 31.9175 1.60951 34.8885C-1.42369 37.8594 -4.39466 44.5947 -5.59239 50.4278C-6.91455 56.9453 -7.30342 64.8938 -4.70576 69.0003H54.076C55.9426 66.1226 57.2337 62.2495 57.9492 57.7074Z" fill="#6D6D6D"/>
<path d="M47.9473 51.2214C47.9473 51.2214 40.2632 51.3302 27.2594 50.9258C14.2555 50.5214 5.37366 49.417 5.37366 49.417L2.04492 69.0006H41.4765L47.9473 51.2214Z" fill="#6D6D6D"/>
<path d="M9.16925 50.0234C10.1648 45.9635 12.0936 34.6085 12.7158 30.7354C8.0804 31.3887 4.11392 32.4464 1.62514 34.8729C-1.40806 37.8439 -4.37904 44.5792 -5.57676 50.4122C-6.89893 56.9297 -7.28779 64.8783 -4.69013 68.9847H2.82286C5.0161 63.3072 8.0493 54.6276 9.16925 50.0234Z" fill="#939393"/>
<path d="M57.9494 57.708C59.1783 49.9617 57.8872 38.98 56.3784 36.1801C54.7296 33.0847 51.6653 31.7003 47.4032 31.0781C47.4032 31.0781 45.8789 42.0287 44.4945 51.1905C43.2345 59.6368 41.1035 69.0009 41.1035 69.0009H54.0763C55.9429 66.1232 57.2339 62.2501 57.9494 57.708Z" fill="#939393"/>
<path d="M-3.8499 49.8991C-2.68329 41.6084 1.60985 34.8887 1.60985 34.8887C-1.42334 37.8596 -4.76764 44.5949 -5.94981 50.428C-7.27197 56.9455 -7.66084 64.894 -5.06318 69.0005H-0.832258C-3.80324 63.7429 -4.78319 56.541 -3.8499 49.8991Z" fill="url(#paint25_linear)"/>
<path d="M59.0074 57.0076C59.2718 49.619 57.8875 38.9639 56.3786 36.1641C56.3786 36.1641 57.6697 40.8772 56.6897 48.5924C55.7253 56.292 53.221 63.7117 48.3057 69.0004H56.8919C56.9075 69.0004 58.7585 64.3961 59.0074 57.0076Z" fill="#1E1E1E"/>
<path d="M-0.0704529 68.2545C-0.0704529 68.2545 -2.91699 62.2503 -2.91699 54.6595C-2.91699 47.4732 0.753953 36.5381 2.46499 36.6315C4.34713 36.7403 -3.13476 54.8773 -0.0704529 68.2545Z" fill="url(#paint26_linear)"/>
<path d="M48.2744 67.927C48.2744 67.927 52.2253 62.545 54.1386 55.1409C55.9585 48.1101 56.0985 37.3462 54.8541 37.1128C53.4697 36.864 53.8586 55.4209 48.2744 67.927Z" fill="url(#paint27_linear)"/>
<path d="M10.709 48.577C10.709 48.577 12.28 36.6464 16.7132 34.4376C21.0063 32.291 38.6455 32.431 41.321 34.9198C44.4786 37.8752 43.1098 50.0236 43.1098 50.0236C43.1098 50.0236 34.1346 49.8991 25.2372 49.4947C15.9043 49.1058 10.709 48.577 10.709 48.577Z" fill="url(#paint28_linear)"/>
<path d="M1.60938 34.8887C4.64257 31.9178 9.86901 30.6267 15.811 30.0045C23.4951 29.1957 40.3876 29.6779 47.4029 30.7045C51.6649 31.3267 54.7292 33.0844 56.378 36.1798C54.4337 33.271 49.6739 32.0889 48.6939 32.4622C47.6984 32.8355 46.2829 38.9486 46.2829 38.9486C46.2829 38.9486 47.0918 32.8822 46.4696 32.0889C45.8474 31.28 37.0122 30.0823 29.3437 30.0823C21.6751 30.0823 14.9399 30.9222 13.7733 31.9022C12.5911 32.8977 11.4867 38.0775 11.4867 38.0775C11.4867 38.0775 12.4822 32.6333 11.6734 31.9644C10.8645 31.2956 4.78257 32.1822 1.60938 34.8887Z" fill="#999999"/>
<path d="M80.0988 69.0002C81.4521 65.5626 78.7611 45.8546 76.6767 43.4902C75.2612 41.9036 71.8392 40.8926 68.3704 40.8926C64.8861 40.8926 61.4641 41.9192 60.0641 43.4902C57.9642 45.8546 55.2888 65.5626 56.6421 69.0002H80.0988Z" fill="#323232"/>
<path d="M10.5223 43.3037C10.5223 43.3037 8.95126 52.2633 4.20703 64.6761C16.1532 64.225 23.6195 64.365 23.6195 64.365C14.4888 63.8517 6.12028 64.0539 5.7003 63.4317C5.28032 62.8095 9.15348 50.8634 9.77567 50.459C10.4134 50.039 16.6354 50.4278 16.6354 50.4278C16.6354 50.4278 10.4445 49.899 10.0245 49.3079C9.58901 48.7168 10.5223 43.3037 10.5223 43.3037Z" fill="#999999"/>
<path d="M45.318 45.6055C45.318 45.6055 44.167 55.4984 42.0826 65.2046C42.0826 65.2046 35.4874 64.4268 23.5879 64.3646C34.2119 63.9291 40.4649 64.8002 41.2893 64.178C42.1293 63.5558 44.0425 52.4029 43.7003 51.8741C43.3581 51.3452 33.1852 51.0652 33.1852 51.0652C33.1852 51.0652 43.3892 51.1897 43.9336 50.723C44.5247 50.2719 45.318 45.6055 45.318 45.6055Z" fill="#999999"/>
</g>
</g>
<defs>
<linearGradient id="paint0_linear" x1="68.3601" y1="14.9439" x2="68.3601" y2="-37.3212" gradientUnits="userSpaceOnUse">
<stop stop-color="#89AA46"/>
<stop offset="0.3717" stop-color="#86A845"/>
<stop offset="0.6388" stop-color="#7DA042"/>
<stop offset="0.8726" stop-color="#6D933D"/>
<stop offset="1" stop-color="#618939"/>
</linearGradient>
<linearGradient id="paint1_linear" x1="68.3599" y1="15.3187" x2="68.3599" y2="-36.9738" gradientUnits="userSpaceOnUse">
<stop stop-color="#89AA46"/>
<stop offset="0.4827" stop-color="#86A847"/>
<stop offset="0.8292" stop-color="#7DA24A"/>
<stop offset="1" stop-color="#759D4D"/>
</linearGradient>
<linearGradient id="paint2_linear" x1="68.3601" y1="-37.3747" x2="68.3601" y2="33.1233" gradientUnits="userSpaceOnUse">
<stop stop-color="#969D96"/>
<stop offset="0.3845" stop-color="#85887B"/>
<stop offset="0.7467" stop-color="#797A68"/>
<stop offset="1" stop-color="#757561"/>
</linearGradient>
<linearGradient id="paint3_linear" x1="12.06" y1="-37.6493" x2="12.06" y2="37.5942" gradientUnits="userSpaceOnUse">
<stop stop-color="#969D96"/>
<stop offset="0.1088" stop-color="#A1A7A1"/>
<stop offset="0.4733" stop-color="#BFC2BF"/>
<stop offset="0.7833" stop-color="#D2D3D2"/>
<stop offset="1" stop-color="#D9D9D9"/>
</linearGradient>
<linearGradient id="paint4_linear" x1="68.36" y1="-80" x2="68.36" y2="68.8371" gradientUnits="userSpaceOnUse">
<stop stop-color="#B1B1B1"/>
<stop offset="1" stop-color="#4D4D4D"/>
</linearGradient>
<linearGradient id="paint5_linear" x1="-13.4214" y1="-65.9075" x2="-13.4214" y2="17.6105" gradientUnits="userSpaceOnUse">
<stop stop-color="#D9D9D9"/>
<stop offset="1" stop-color="#898989"/>
</linearGradient>
<linearGradient id="paint6_linear" x1="-13.9546" y1="-63.7651" x2="-13.9546" y2="15.5734" gradientUnits="userSpaceOnUse">
<stop stop-color="#828282"/>
<stop offset="0.3448" stop-color="#7E7E7E"/>
<stop offset="0.7015" stop-color="#717171"/>
<stop offset="1" stop-color="#616161"/>
</linearGradient>
<linearGradient id="paint7_linear" x1="-14.2057" y1="-6.24664" x2="-14.2057" y2="68.8294" gradientUnits="userSpaceOnUse">
<stop stop-color="#616161"/>
<stop offset="1" stop-color="#464646"/>
</linearGradient>
<linearGradient id="paint8_linear" x1="28.0902" y1="18.2345" x2="28.0902" y2="68.3332" gradientUnits="userSpaceOnUse">
<stop stop-color="#323232"/>
<stop offset="1" stop-color="#616161"/>
</linearGradient>
<linearGradient id="paint9_linear" x1="-2.40219" y1="3.03857" x2="-42.5026" y2="55.656" gradientUnits="userSpaceOnUse">
<stop stop-color="#616161"/>
<stop offset="1" stop-color="#393939"/>
</linearGradient>
<linearGradient id="paint10_linear" x1="68.3592" y1="-6.16677" x2="68.3592" y2="21.8402" gradientUnits="userSpaceOnUse">
<stop stop-color="#616161"/>
<stop offset="1" stop-color="#252525"/>
</linearGradient>
<linearGradient id="paint11_linear" x1="68.3599" y1="4.5468" x2="68.3599" y2="22.9253" gradientUnits="userSpaceOnUse">
<stop stop-color="#9D9D9D"/>
<stop offset="0.1316" stop-color="#888888"/>
<stop offset="0.3531" stop-color="#6B6B6B"/>
<stop offset="0.5735" stop-color="#575757"/>
<stop offset="0.7906" stop-color="#4A4A4A"/>
<stop offset="1" stop-color="#464646"/>
</linearGradient>
<linearGradient id="paint12_linear" x1="7.06387" y1="1.96578" x2="61.1522" y2="23.364" gradientUnits="userSpaceOnUse">
<stop stop-color="#4D4D4D"/>
<stop offset="0.3124" stop-color="#494949"/>
<stop offset="0.6359" stop-color="#3C3C3C"/>
<stop offset="0.9636" stop-color="#282828"/>
<stop offset="1" stop-color="#252525"/>
</linearGradient>
<linearGradient id="paint13_linear" x1="9.61488" y1="-4.17124" x2="57.2837" y2="11.6387" gradientUnits="userSpaceOnUse">
<stop stop-color="#828282"/>
<stop offset="1" stop-color="#616161"/>
</linearGradient>
<linearGradient id="paint14_linear" x1="27.4157" y1="16.0018" x2="57.4652" y2="32.8826" gradientUnits="userSpaceOnUse">
<stop stop-color="#464646"/>
<stop offset="1" stop-color="#111111"/>
</linearGradient>
<linearGradient id="paint15_linear" x1="32.6257" y1="13.7843" x2="32.6257" y2="30.5991" gradientUnits="userSpaceOnUse">
<stop stop-color="#393939"/>
<stop offset="1"/>
</linearGradient>
<linearGradient id="paint16_linear" x1="9.04184" y1="-2.63984" x2="53.6264" y2="14.9988" gradientUnits="userSpaceOnUse">
<stop stop-color="#AAAAAA"/>
<stop offset="1" stop-color="#616161"/>
</linearGradient>
<linearGradient id="paint17_linear" x1="15.4833" y1="-13.2492" x2="65.7322" y2="23.8955" gradientUnits="userSpaceOnUse">
<stop stop-color="#C5C5C5"/>
<stop offset="0.1599" stop-color="#C1C1C1"/>
<stop offset="0.3256" stop-color="#B4B4B4"/>
<stop offset="0.4941" stop-color="#A0A0A0"/>
<stop offset="0.6645" stop-color="#838383"/>
<stop offset="0.8344" stop-color="#5E5E5E"/>
<stop offset="1" stop-color="#323232"/>
</linearGradient>
<linearGradient id="paint18_linear" x1="6.9073" y1="6.183" x2="49.0521" y2="14.3341" gradientUnits="userSpaceOnUse">
<stop stop-color="#616161"/>
<stop offset="0.3124" stop-color="#5D5D5D"/>
<stop offset="0.6359" stop-color="#505050"/>
<stop offset="0.9636" stop-color="#3C3C3C"/>
<stop offset="1" stop-color="#393939"/>
</linearGradient>
<linearGradient id="paint19_linear" x1="33.6163" y1="-4.53931" x2="33.6163" y2="5.67386" gradientUnits="userSpaceOnUse">
<stop stop-color="#252525"/>
<stop offset="1" stop-color="#4D4D4D"/>
</linearGradient>
<linearGradient id="paint20_linear" x1="33.6161" y1="-18.9508" x2="33.6161" y2="12.4682" gradientUnits="userSpaceOnUse">
<stop stop-color="#4D4D4D"/>
<stop offset="1" stop-color="#323232"/>
</linearGradient>
<linearGradient id="paint21_linear" x1="33.6158" y1="-4.92073" x2="33.6158" y2="9.64266" gradientUnits="userSpaceOnUse">
<stop stop-color="#616161"/>
<stop offset="1" stop-color="#323232"/>
</linearGradient>
<linearGradient id="paint22_linear" x1="33.6151" y1="9.25497" x2="33.6151" y2="0.72764" gradientUnits="userSpaceOnUse">
<stop stop-color="#898989"/>
<stop offset="1" stop-color="#616161"/>
</linearGradient>
<linearGradient id="paint23_linear" x1="33.6156" y1="-7.32853" x2="33.6156" y2="0.863433" gradientUnits="userSpaceOnUse">
<stop stop-color="#616161"/>
<stop offset="1" stop-color="#252525"/>
</linearGradient>
<linearGradient id="paint24_linear" x1="33.6154" y1="-4.01814" x2="33.6154" y2="0.672274" gradientUnits="userSpaceOnUse">
<stop stop-color="#393939"/>
<stop offset="1" stop-color="#252525"/>
</linearGradient>
<linearGradient id="paint25_linear" x1="-2.6892" y1="34.9448" x2="-2.6892" y2="69.0619" gradientUnits="userSpaceOnUse">
<stop stop-color="#323232"/>
<stop offset="1" stop-color="#1E1E1E"/>
</linearGradient>
<linearGradient id="paint26_linear" x1="-0.0762096" y1="36.4086" x2="-0.0762096" y2="68.481" gradientUnits="userSpaceOnUse">
<stop stop-color="#616161"/>
<stop offset="1" stop-color="#464646"/>
</linearGradient>
<linearGradient id="paint27_linear" x1="51.9752" y1="36.4077" x2="51.9752" y2="68.48" gradientUnits="userSpaceOnUse">
<stop stop-color="#616161"/>
<stop offset="1" stop-color="#464646"/>
</linearGradient>
<linearGradient id="paint28_linear" x1="28.9824" y1="32.9249" x2="26.7471" y2="50.6041" gradientUnits="userSpaceOnUse">
<stop stop-color="#616161"/>
<stop offset="1" stop-color="#464646"/>
</linearGradient>
</defs>
</svg>
